<?xml version="1.0" encoding="UTF-8" standalone="no"?>
<!-- Created with Inkscape (http://www.inkscape.org/) -->

<svg
   xmlns:dc="http://purl.org/dc/elements/1.1/"
   xmlns:cc="http://creativecommons.org/ns#"
   xmlns:rdf="http://www.w3.org/1999/02/22-rdf-syntax-ns#"
   xmlns:svg="http://www.w3.org/2000/svg"
   xmlns="http://www.w3.org/2000/svg"
   xmlns:sodipodi="http://sodipodi.sourceforge.net/DTD/sodipodi-0.dtd"
   xmlns:inkscape="http://www.inkscape.org/namespaces/inkscape"
   width="374.35745"
   height="374.35745"
   id="svg2"
   version="1.1"
   inkscape:version="0.48.4 r9939"
   sodipodi:docname="logo.png">
  <sodipodi:namedview
     id="base"
     pagecolor="#ffffff"
     bordercolor="#666666"
     borderopacity="1.0"
     inkscape:pageopacity="0.0"
     inkscape:pageshadow="2"
     inkscape:zoom="0.5"
     inkscape:cx="-9.5515202"
     inkscape:cy="91.094619"
     inkscape:document-units="px"
     inkscape:current-layer="layer1"
     showgrid="false"
     inkscape:snap-object-midpoints="true"
     inkscape:window-width="1366"
     inkscape:window-height="706"
     inkscape:window-x="-8"
     inkscape:window-y="-8"
     inkscape:window-maximized="1"
     fit-margin-top="0"
     fit-margin-left="0"
     fit-margin-right="0"
     fit-margin-bottom="0" />
  <defs
     id="defs4" />
  <metadata
     id="metadata7">
    <rdf:RDF>
      <cc:Work
         rdf:about="">
        <dc:format>image/svg+xml</dc:format>
        <dc:type
           rdf:resource="http://purl.org/dc/dcmitype/StillImage" />
        <dc:title></dc:title>
      </cc:Work>
    </rdf:RDF>
  </metadata>
  <g
     transform="translate(-164.24983,-425.46916)"
     inkscape:label="Layer 1"
     inkscape:groupmode="layer"
     id="layer1">
    <g
       id="g3787"
       transform="translate(10,6)">
      <g
         id="g4214">
        <g
           transform="matrix(0.70710678,0.70710678,-0.70710678,0.70710678,528.96695,-63.743398)"
           id="g4388">
          <g
             id="g3783">
            <path
               sodipodi:type="arc"
               style="fill:#ffcc00;fill-opacity:1;stroke:none"
               id="path3763"
               sodipodi:cx="341.42856"
               sodipodi:cy="606.64789"
               sodipodi:rx="108.57143"
               sodipodi:ry="108.57143"
               d="m 449.99998,606.64789 c 0,59.96234 -48.60908,108.57142 -108.57142,108.57142 -59.96234,0 -108.57143,-48.60908 -108.57143,-108.57142 0,-59.96234 48.60909,-108.57143 108.57143,-108.57143 59.96234,0 108.57142,48.60909 108.57142,108.57143 z"
               transform="matrix(1.6723685,0,0,1.6355263,-229.5658,-385.54068)" />
            <path
               sodipodi:type="arc"
               style="fill:#0066cc;fill-opacity:0.79545456;stroke:none"
               id="path3773"
               sodipodi:cx="377.14285"
               sodipodi:cy="466.64789"
               sodipodi:rx="200"
               sodipodi:ry="80"
               d="m 577.14285,466.64789 c 0,44.18278 -89.54305,80 -200,80 -110.45695,0 -200,-35.81722 -200,-80 0,-44.18278 89.54305,-80 200,-80 110.45695,0 200,35.81722 200,80 z"
               transform="matrix(1.235,0,0,1.1875,-124.34286,52.503522)" />
          </g>
          <path
             sodipodi:type="arc"
             style="fill:#009900;fill-opacity:0.79545456;stroke:none"
             id="path3781"
             sodipodi:cx="377.14285"
             sodipodi:cy="466.64789"
             sodipodi:rx="200"
             sodipodi:ry="80"
             d="m 577.14285,466.64789 c 0,44.18278 -89.54305,80 -200,80 -110.45695,0 -200,-35.81722 -200,-80 0,-44.18278 89.54305,-80 200,-80 110.45695,0 200,35.81722 200,80 z"
             transform="matrix(0,1.235,-1.1875,0,895.57293,140.87647)" />
        </g>
      </g>
    </g>
  </g>
  <g
     id="g3955"
     transform="translate(162.87705,250.54857)"
     inkscape:label="Gear24" />
</svg>
