<?xml version="1.0" encoding="UTF-8" standalone="yes"?>
<svg xmlns="http://www.w3.org/2000/svg" xmlns:xlink="http://www.w3.org/1999/xlink" height="1541px" style="width:2275px;height:1541px;" version="1.1" viewBox="0 0 2275 1541" width="2275px"><defs><filter height="300%" id="f1" width="300%" x="-1" y="-1"><feGaussianBlur result="blurOut" stdDeviation="2.0"/><feColorMatrix in="blurOut" result="blurOut2" type="matrix" values="0 0 0 0 0 0 0 0 0 0 0 0 0 0 0 0 0 0 .4 0"/><feOffset dx="4.0" dy="4.0" in="blurOut2" result="blurOut3"/><feBlend in="SourceGraphic" in2="blurOut3" mode="normal"/></filter></defs><g><polygon fill="#FFFFFF" filter="url(#f1)" points="22,24,231,24,238,46.2969,2268,46.2969,2268,1534,22,1534,22,24" style="stroke: #000000; stroke-width: 2.0;"/><line style="stroke: #000000; stroke-width: 2.0;" x1="22" x2="238" y1="46.2969" y2="46.2969"/><text fill="#000000" font-family="sans-serif" font-size="14" font-weight="bold" lengthAdjust="spacingAndGlyphs" textLength="203" x="26" y="38.9951">ua.dborisenko.kickstarter</text><rect fill="#FEFECE" filter="url(#f1)" height="208.0586" style="stroke: #A80036; stroke-width: 1.5;" width="233" x="982.5" y="962.5"/><ellipse cx="997.5" cy="978.5" fill="#ADD1B2" rx="11" ry="11" style="stroke: #A80036; stroke-width: 1.0;"/><path d="M999.8438,974.1719 L1000.0156,974.25 C1000.2344,973.9375 1000.4375,973.8438 1000.7344,973.8438 C1001.0313,973.8438 1001.3125,973.9844 1001.4688,974.25 C1001.5625,974.4063 1001.5781,974.5313 1001.5781,974.9688 L1001.5781,976.3906 C1001.5781,976.8125 1001.5469,977 1001.4375,977.1563 C1001.2656,977.375 1001,977.5156 1000.7344,977.5156 C1000.5156,977.5156 1000.2813,977.4063 1000.1406,977.2656 C1000,977.1406 999.9688,977.0156 999.9063,976.6094 C999.8125,976.2031 999.6406,975.9844 999.1563,975.7031 C998.6875,975.4531 998.0781,975.2969 997.5,975.2969 C995.7656,975.2969 994.5156,976.6094 994.5156,978.3906 L994.5156,979.4844 C994.5156,981.1875 995.8125,982.2813 997.8594,982.2813 C998.625,982.2813 999.3125,982.1563 999.7344,981.8906 C999.9219,981.7969 999.9219,981.7969 1000.375,981.3125 C1000.5625,981.125 1000.7656,981.0469 1000.9844,981.0469 C1001.4531,981.0469 1001.8438,981.4375 1001.8438,981.8906 C1001.8438,982.2813 1001.5156,982.7344 1000.9375,983.1406 C1000.1875,983.6875 999.0313,983.9844 997.8125,983.9844 C994.9219,983.9844 992.8125,982.0938 992.8125,979.5156 L992.8125,978.3906 C992.8125,975.6719 994.8125,973.5938 997.4375,973.5938 C998.3125,973.5938 998.9063,973.7344 999.8438,974.1719 Z "/><text fill="#000000" font-family="sans-serif" font-size="12" lengthAdjust="spacingAndGlyphs" textLength="201" x="1011.5" y="982.6543">DataSourceProjectCategoryTest</text><line style="stroke: #A80036; stroke-width: 1.5;" x1="983.5" x2="1214.5" y1="994.5" y2="994.5"/><line style="stroke: #A80036; stroke-width: 1.0; stroke-dasharray: 1.0,2.0;" x1="983.5" x2="1082.5" y1="1008.9023" y2="1008.9023"/><text fill="#000000" font-family="sans-serif" font-size="11" lengthAdjust="spacingAndGlyphs" textLength="33" x="1082.5" y="1012.2104">Fields</text><line style="stroke: #A80036; stroke-width: 1.0; stroke-dasharray: 1.0,2.0;" x1="1115.5" x2="1214.5" y1="1008.9023" y2="1008.9023"/><text fill="#000000" font-family="sans-serif" font-size="11" lengthAdjust="spacingAndGlyphs" textLength="98" x="988.5" y="1044.7222">+addTest() : void</text><text fill="#000000" font-family="sans-serif" font-size="11" lengthAdjust="spacingAndGlyphs" textLength="112" x="988.5" y="1057.5269">+deleteTest() : void</text><text fill="#000000" font-family="sans-serif" font-size="11" lengthAdjust="spacingAndGlyphs" textLength="153" x="988.5" y="1070.3315">+getByIdExistsTest() : void</text><text fill="#000000" font-family="sans-serif" font-size="11" lengthAdjust="spacingAndGlyphs" textLength="172" x="988.5" y="1083.1362">+getByIdNotExistsTest() : void</text><text fill="#000000" font-family="sans-serif" font-size="11" lengthAdjust="spacingAndGlyphs" textLength="176" x="988.5" y="1095.9409">+getByNameExistsTest() : void</text><text fill="#000000" font-family="sans-serif" font-size="11" lengthAdjust="spacingAndGlyphs" textLength="195" x="988.5" y="1108.7456">+getByNameNotExistsTest() : void</text><text fill="#000000" font-family="sans-serif" font-size="11" lengthAdjust="spacingAndGlyphs" textLength="163" x="988.5" y="1121.5503">+prepareDataSource() : void</text><text fill="#000000" font-family="sans-serif" font-size="11" lengthAdjust="spacingAndGlyphs" textLength="116" x="988.5" y="1134.355">+updateTest() : void</text><line style="stroke: #A80036; stroke-width: 1.0; stroke-dasharray: 1.0,2.0;" x1="983.5" x2="1075" y1="1028.1094" y2="1028.1094"/><text fill="#000000" font-family="sans-serif" font-size="11" lengthAdjust="spacingAndGlyphs" textLength="48" x="1075" y="1031.4175">Methods</text><line style="stroke: #A80036; stroke-width: 1.0; stroke-dasharray: 1.0,2.0;" x1="1123" x2="1214.5" y1="1028.1094" y2="1028.1094"/><text fill="#000000" font-family="sans-serif" font-size="11" lengthAdjust="spacingAndGlyphs" text-decoration="underline" textLength="155" x="988.5" y="1163.9644">-category : ProjectCategory</text><line style="stroke: #000000; stroke-width: 1.0;" x1="988.5" x2="1143.5" y1="1165.9644" y2="1165.9644"/><line style="stroke: #A80036; stroke-width: 1.0; stroke-dasharray: 1.0,2.0;" x1="983.5" x2="1083" y1="1147.3516" y2="1147.3516"/><text fill="#000000" font-family="sans-serif" font-size="11" lengthAdjust="spacingAndGlyphs" textLength="32" x="1083" y="1150.6597">Static</text><line style="stroke: #A80036; stroke-width: 1.0; stroke-dasharray: 1.0,2.0;" x1="1115" x2="1214.5" y1="1147.3516" y2="1147.3516"/><rect fill="#FEFECE" filter="url(#f1)" height="144.0352" style="stroke: #A80036; stroke-width: 1.5;" width="146" x="1604" y="568.5"/><ellipse cx="1644.2" cy="584.5" fill="#ADD1B2" rx="11" ry="11" style="stroke: #A80036; stroke-width: 1.0;"/><path d="M1646.5438,580.1719 L1646.7156,580.25 C1646.9344,579.9375 1647.1375,579.8438 1647.4344,579.8438 C1647.7313,579.8438 1648.0125,579.9844 1648.1688,580.25 C1648.2625,580.4063 1648.2781,580.5313 1648.2781,580.9688 L1648.2781,582.3906 C1648.2781,582.8125 1648.2469,583 1648.1375,583.1563 C1647.9656,583.375 1647.7,583.5156 1647.4344,583.5156 C1647.2156,583.5156 1646.9813,583.4063 1646.8406,583.2656 C1646.7,583.1406 1646.6688,583.0156 1646.6063,582.6094 C1646.5125,582.2031 1646.3406,581.9844 1645.8563,581.7031 C1645.3875,581.4531 1644.7781,581.2969 1644.2,581.2969 C1642.4656,581.2969 1641.2156,582.6094 1641.2156,584.3906 L1641.2156,585.4844 C1641.2156,587.1875 1642.5125,588.2813 1644.5594,588.2813 C1645.325,588.2813 1646.0125,588.1563 1646.4344,587.8906 C1646.6219,587.7969 1646.6219,587.7969 1647.075,587.3125 C1647.2625,587.125 1647.4656,587.0469 1647.6844,587.0469 C1648.1531,587.0469 1648.5438,587.4375 1648.5438,587.8906 C1648.5438,588.2813 1648.2156,588.7344 1647.6375,589.1406 C1646.8875,589.6875 1645.7313,589.9844 1644.5125,589.9844 C1641.6219,589.9844 1639.5125,588.0938 1639.5125,585.5156 L1639.5125,584.3906 C1639.5125,581.6719 1641.5125,579.5938 1644.1375,579.5938 C1645.0125,579.5938 1645.6063,579.7344 1646.5438,580.1719 Z "/><text fill="#000000" font-family="sans-serif" font-size="12" lengthAdjust="spacingAndGlyphs" textLength="58" x="1663.8" y="588.6543">ErrorTest</text><line style="stroke: #A80036; stroke-width: 1.5;" x1="1605" x2="1749" y1="600.5" y2="600.5"/><line style="stroke: #A80036; stroke-width: 1.0; stroke-dasharray: 1.0,2.0;" x1="1605" x2="1660.5" y1="614.9023" y2="614.9023"/><text fill="#000000" font-family="sans-serif" font-size="11" lengthAdjust="spacingAndGlyphs" textLength="33" x="1660.5" y="618.2104">Fields</text><line style="stroke: #A80036; stroke-width: 1.0; stroke-dasharray: 1.0,2.0;" x1="1693.5" x2="1749" y1="614.9023" y2="614.9023"/><text fill="#000000" font-family="sans-serif" font-size="11" lengthAdjust="spacingAndGlyphs" textLength="99" x="1610" y="650.7222">+getCode() : void</text><text fill="#000000" font-family="sans-serif" font-size="11" lengthAdjust="spacingAndGlyphs" textLength="134" x="1610" y="663.5269">+getDescription() : void</text><text fill="#000000" font-family="sans-serif" font-size="11" lengthAdjust="spacingAndGlyphs" textLength="103" x="1610" y="676.3315">+getName() : void</text><line style="stroke: #A80036; stroke-width: 1.0; stroke-dasharray: 1.0,2.0;" x1="1605" x2="1653" y1="634.1094" y2="634.1094"/><text fill="#000000" font-family="sans-serif" font-size="11" lengthAdjust="spacingAndGlyphs" textLength="48" x="1653" y="637.4175">Methods</text><line style="stroke: #A80036; stroke-width: 1.0; stroke-dasharray: 1.0,2.0;" x1="1701" x2="1749" y1="634.1094" y2="634.1094"/><text fill="#000000" font-family="sans-serif" font-size="11" lengthAdjust="spacingAndGlyphs" text-decoration="underline" textLength="74" x="1610" y="705.9409">-error : Error</text><line style="stroke: #000000; stroke-width: 1.0;" x1="1610" x2="1684" y1="707.9409" y2="707.9409"/><line style="stroke: #A80036; stroke-width: 1.0; stroke-dasharray: 1.0,2.0;" x1="1605" x2="1661" y1="689.3281" y2="689.3281"/><text fill="#000000" font-family="sans-serif" font-size="11" lengthAdjust="spacingAndGlyphs" textLength="32" x="1661" y="692.6362">Static</text><line style="stroke: #A80036; stroke-width: 1.0; stroke-dasharray: 1.0,2.0;" x1="1693" x2="1749" y1="689.3281" y2="689.3281"/><rect fill="#FEFECE" filter="url(#f1)" height="140.0352" style="stroke: #A80036; stroke-width: 1.5;" width="206" x="1418" y="94"/><ellipse cx="1433" cy="110" fill="#ADD1B2" rx="11" ry="11" style="stroke: #A80036; stroke-width: 1.0;"/><path d="M1435.3438,105.6719 L1435.5156,105.75 C1435.7344,105.4375 1435.9375,105.3438 1436.2344,105.3438 C1436.5313,105.3438 1436.8125,105.4844 1436.9688,105.75 C1437.0625,105.9063 1437.0781,106.0313 1437.0781,106.4688 L1437.0781,107.8906 C1437.0781,108.3125 1437.0469,108.5 1436.9375,108.6563 C1436.7656,108.875 1436.5,109.0156 1436.2344,109.0156 C1436.0156,109.0156 1435.7813,108.9063 1435.6406,108.7656 C1435.5,108.6406 1435.4688,108.5156 1435.4063,108.1094 C1435.3125,107.7031 1435.1406,107.4844 1434.6563,107.2031 C1434.1875,106.9531 1433.5781,106.7969 1433,106.7969 C1431.2656,106.7969 1430.0156,108.1094 1430.0156,109.8906 L1430.0156,110.9844 C1430.0156,112.6875 1431.3125,113.7813 1433.3594,113.7813 C1434.125,113.7813 1434.8125,113.6563 1435.2344,113.3906 C1435.4219,113.2969 1435.4219,113.2969 1435.875,112.8125 C1436.0625,112.625 1436.2656,112.5469 1436.4844,112.5469 C1436.9531,112.5469 1437.3438,112.9375 1437.3438,113.3906 C1437.3438,113.7813 1437.0156,114.2344 1436.4375,114.6406 C1435.6875,115.1875 1434.5313,115.4844 1433.3125,115.4844 C1430.4219,115.4844 1428.3125,113.5938 1428.3125,111.0156 L1428.3125,109.8906 C1428.3125,107.1719 1430.3125,105.0938 1432.9375,105.0938 C1433.8125,105.0938 1434.4063,105.2344 1435.3438,105.6719 Z "/><text fill="#000000" font-family="sans-serif" font-size="12" lengthAdjust="spacingAndGlyphs" textLength="174" x="1447" y="114.1543">DataSourceProjectCategory</text><line style="stroke: #A80036; stroke-width: 1.5;" x1="1419" x2="1623" y1="126" y2="126"/><line style="stroke: #A80036; stroke-width: 1.0; stroke-dasharray: 1.0,2.0;" x1="1419" x2="1497" y1="140.4023" y2="140.4023"/><text fill="#000000" font-family="sans-serif" font-size="11" lengthAdjust="spacingAndGlyphs" textLength="48" x="1497" y="143.7104">Methods</text><line style="stroke: #A80036; stroke-width: 1.0; stroke-dasharray: 1.0,2.0;" x1="1545" x2="1623" y1="140.4023" y2="140.4023"/><text fill="#000000" font-family="sans-serif" font-size="11" lengthAdjust="spacingAndGlyphs" text-decoration="underline" textLength="73" x="1424" y="176.2222">+add() : void</text><line style="stroke: #000000; stroke-width: 1.0;" x1="1424" x2="1497" y1="178.2222" y2="178.2222"/><text fill="#000000" font-family="sans-serif" font-size="11" lengthAdjust="spacingAndGlyphs" text-decoration="underline" textLength="87" x="1424" y="189.0269">+delete() : void</text><line style="stroke: #000000; stroke-width: 1.0;" x1="1424" x2="1511" y1="191.0269" y2="191.0269"/><text fill="#000000" font-family="sans-serif" font-size="11" lengthAdjust="spacingAndGlyphs" text-decoration="underline" textLength="161" x="1424" y="201.8315">+getById() : ProjectCategory</text><line style="stroke: #000000; stroke-width: 1.0;" x1="1424" x2="1585" y1="203.8315" y2="203.8315"/><text fill="#000000" font-family="sans-serif" font-size="11" lengthAdjust="spacingAndGlyphs" text-decoration="underline" textLength="184" x="1424" y="214.6362">+getByName() : ProjectCategory</text><line style="stroke: #000000; stroke-width: 1.0;" x1="1424" x2="1608" y1="216.6362" y2="216.6362"/><text fill="#000000" font-family="sans-serif" font-size="11" lengthAdjust="spacingAndGlyphs" text-decoration="underline" textLength="91" x="1424" y="227.4409">+update() : void</text><line style="stroke: #000000; stroke-width: 1.0;" x1="1424" x2="1515" y1="229.4409" y2="229.4409"/><line style="stroke: #A80036; stroke-width: 1.0; stroke-dasharray: 1.0,2.0;" x1="1419" x2="1505" y1="159.6094" y2="159.6094"/><text fill="#000000" font-family="sans-serif" font-size="11" lengthAdjust="spacingAndGlyphs" textLength="32" x="1505" y="162.9175">Static</text><line style="stroke: #A80036; stroke-width: 1.0; stroke-dasharray: 1.0,2.0;" x1="1537" x2="1623" y1="159.6094" y2="159.6094"/><rect fill="#FEFECE" filter="url(#f1)" height="99.2188" style="stroke: #A80036; stroke-width: 1.5;" width="201" x="1144.5" y="591"/><ellipse cx="1159.5" cy="607" fill="#ADD1B2" rx="11" ry="11" style="stroke: #A80036; stroke-width: 1.0;"/><path d="M1161.8438,602.6719 L1162.0156,602.75 C1162.2344,602.4375 1162.4375,602.3438 1162.7344,602.3438 C1163.0313,602.3438 1163.3125,602.4844 1163.4688,602.75 C1163.5625,602.9063 1163.5781,603.0313 1163.5781,603.4688 L1163.5781,604.8906 C1163.5781,605.3125 1163.5469,605.5 1163.4375,605.6563 C1163.2656,605.875 1163,606.0156 1162.7344,606.0156 C1162.5156,606.0156 1162.2813,605.9063 1162.1406,605.7656 C1162,605.6406 1161.9688,605.5156 1161.9063,605.1094 C1161.8125,604.7031 1161.6406,604.4844 1161.1563,604.2031 C1160.6875,603.9531 1160.0781,603.7969 1159.5,603.7969 C1157.7656,603.7969 1156.5156,605.1094 1156.5156,606.8906 L1156.5156,607.9844 C1156.5156,609.6875 1157.8125,610.7813 1159.8594,610.7813 C1160.625,610.7813 1161.3125,610.6563 1161.7344,610.3906 C1161.9219,610.2969 1161.9219,610.2969 1162.375,609.8125 C1162.5625,609.625 1162.7656,609.5469 1162.9844,609.5469 C1163.4531,609.5469 1163.8438,609.9375 1163.8438,610.3906 C1163.8438,610.7813 1163.5156,611.2344 1162.9375,611.6406 C1162.1875,612.1875 1161.0313,612.4844 1159.8125,612.4844 C1156.9219,612.4844 1154.8125,610.5938 1154.8125,608.0156 L1154.8125,606.8906 C1154.8125,604.1719 1156.8125,602.0938 1159.4375,602.0938 C1160.3125,602.0938 1160.9063,602.2344 1161.8438,602.6719 Z "/><text fill="#000000" font-family="sans-serif" font-size="12" lengthAdjust="spacingAndGlyphs" textLength="72" x="1173.5" y="611.1543">ViewProject</text><rect fill="#FFFFFF" height="15.9688" style="stroke: #000000; stroke-width: 1.0; stroke-dasharray: 2.0,2.0;" width="95" x="1253.5" y="588"/><text fill="#000000" font-family="sans-serif" font-size="12" font-style="italic" lengthAdjust="spacingAndGlyphs" textLength="93" x="1254.5" y="600.1387">? extends View</text><line style="stroke: #A80036; stroke-width: 1.5;" x1="1145.5" x2="1344.5" y1="623" y2="623"/><text fill="#000000" font-family="sans-serif" font-size="11" lengthAdjust="spacingAndGlyphs" textLength="94" x="1150.5" y="654.0151">-project : Project</text><line style="stroke: #A80036; stroke-width: 1.0; stroke-dasharray: 1.0,2.0;" x1="1145.5" x2="1228.5" y1="637.4023" y2="637.4023"/><text fill="#000000" font-family="sans-serif" font-size="11" lengthAdjust="spacingAndGlyphs" textLength="33" x="1228.5" y="640.7104">Fields</text><line style="stroke: #A80036; stroke-width: 1.0; stroke-dasharray: 1.0,2.0;" x1="1261.5" x2="1344.5" y1="637.4023" y2="637.4023"/><text fill="#000000" font-family="sans-serif" font-size="11" lengthAdjust="spacingAndGlyphs" textLength="114" x="1150.5" y="683.6245">+generate() : String</text><line style="stroke: #A80036; stroke-width: 1.0; stroke-dasharray: 1.0,2.0;" x1="1145.5" x2="1221" y1="667.0117" y2="667.0117"/><text fill="#000000" font-family="sans-serif" font-size="11" lengthAdjust="spacingAndGlyphs" textLength="48" x="1221" y="670.3198">Methods</text><line style="stroke: #A80036; stroke-width: 1.0; stroke-dasharray: 1.0,2.0;" x1="1269" x2="1344.5" y1="667.0117" y2="667.0117"/><rect fill="#FEFECE" filter="url(#f1)" height="150.4375" style="stroke: #A80036; stroke-width: 1.5;" width="157" x="1494.5" y="991.5"/><ellipse cx="1553.25" cy="1007.5" fill="#ADD1B2" rx="11" ry="11" style="stroke: #A80036; stroke-width: 1.0;"/><path d="M1555.5938,1003.1719 L1555.7656,1003.25 C1555.9844,1002.9375 1556.1875,1002.8438 1556.4844,1002.8438 C1556.7813,1002.8438 1557.0625,1002.9844 1557.2188,1003.25 C1557.3125,1003.4063 1557.3281,1003.5313 1557.3281,1003.9688 L1557.3281,1005.3906 C1557.3281,1005.8125 1557.2969,1006 1557.1875,1006.1563 C1557.0156,1006.375 1556.75,1006.5156 1556.4844,1006.5156 C1556.2656,1006.5156 1556.0313,1006.4063 1555.8906,1006.2656 C1555.75,1006.1406 1555.7188,1006.0156 1555.6563,1005.6094 C1555.5625,1005.2031 1555.3906,1004.9844 1554.9063,1004.7031 C1554.4375,1004.4531 1553.8281,1004.2969 1553.25,1004.2969 C1551.5156,1004.2969 1550.2656,1005.6094 1550.2656,1007.3906 L1550.2656,1008.4844 C1550.2656,1010.1875 1551.5625,1011.2813 1553.6094,1011.2813 C1554.375,1011.2813 1555.0625,1011.1563 1555.4844,1010.8906 C1555.6719,1010.7969 1555.6719,1010.7969 1556.125,1010.3125 C1556.3125,1010.125 1556.5156,1010.0469 1556.7344,1010.0469 C1557.2031,1010.0469 1557.5938,1010.4375 1557.5938,1010.8906 C1557.5938,1011.2813 1557.2656,1011.7344 1556.6875,1012.1406 C1555.9375,1012.6875 1554.7813,1012.9844 1553.5625,1012.9844 C1550.6719,1012.9844 1548.5625,1011.0938 1548.5625,1008.5156 L1548.5625,1007.3906 C1548.5625,1004.6719 1550.5625,1002.5938 1553.1875,1002.5938 C1554.0625,1002.5938 1554.6563,1002.7344 1555.5938,1003.1719 Z "/><text fill="#000000" font-family="sans-serif" font-size="12" lengthAdjust="spacingAndGlyphs" textLength="31" x="1573.75" y="1011.6543">Error</text><line style="stroke: #A80036; stroke-width: 1.5;" x1="1495.5" x2="1650.5" y1="1023.5" y2="1023.5"/><text fill="#000000" font-family="sans-serif" font-size="11" lengthAdjust="spacingAndGlyphs" textLength="57" x="1500.5" y="1054.5151">-code : int</text><text fill="#000000" font-family="sans-serif" font-size="11" lengthAdjust="spacingAndGlyphs" textLength="113" x="1500.5" y="1067.3198">-description : String</text><text fill="#000000" font-family="sans-serif" font-size="11" lengthAdjust="spacingAndGlyphs" textLength="82" x="1500.5" y="1080.1245">-name : String</text><line style="stroke: #A80036; stroke-width: 1.0; stroke-dasharray: 1.0,2.0;" x1="1495.5" x2="1556.5" y1="1037.9023" y2="1037.9023"/><text fill="#000000" font-family="sans-serif" font-size="11" lengthAdjust="spacingAndGlyphs" textLength="33" x="1556.5" y="1041.2104">Fields</text><line style="stroke: #A80036; stroke-width: 1.0; stroke-dasharray: 1.0,2.0;" x1="1589.5" x2="1650.5" y1="1037.9023" y2="1037.9023"/><text fill="#000000" font-family="sans-serif" font-size="11" lengthAdjust="spacingAndGlyphs" textLength="90" x="1500.5" y="1109.7339">+getCode() : int</text><text fill="#000000" font-family="sans-serif" font-size="11" lengthAdjust="spacingAndGlyphs" textLength="145" x="1500.5" y="1122.5386">+getDescription() : String</text><text fill="#000000" font-family="sans-serif" font-size="11" lengthAdjust="spacingAndGlyphs" textLength="114" x="1500.5" y="1135.3433">+getName() : String</text><line style="stroke: #A80036; stroke-width: 1.0; stroke-dasharray: 1.0,2.0;" x1="1495.5" x2="1549" y1="1093.1211" y2="1093.1211"/><text fill="#000000" font-family="sans-serif" font-size="11" lengthAdjust="spacingAndGlyphs" textLength="48" x="1549" y="1096.4292">Methods</text><line style="stroke: #A80036; stroke-width: 1.0; stroke-dasharray: 1.0,2.0;" x1="1597" x2="1650.5" y1="1093.1211" y2="1093.1211"/><rect fill="#FEFECE" filter="url(#f1)" height="95.2188" style="stroke: #A80036; stroke-width: 1.5;" width="216" x="1659" y="116.5"/><ellipse cx="1712.25" cy="132.5" fill="#ADD1B2" rx="11" ry="11" style="stroke: #A80036; stroke-width: 1.0;"/><path d="M1714.5938,128.1719 L1714.7656,128.25 C1714.9844,127.9375 1715.1875,127.8438 1715.4844,127.8438 C1715.7813,127.8438 1716.0625,127.9844 1716.2188,128.25 C1716.3125,128.4063 1716.3281,128.5313 1716.3281,128.9688 L1716.3281,130.3906 C1716.3281,130.8125 1716.2969,131 1716.1875,131.1563 C1716.0156,131.375 1715.75,131.5156 1715.4844,131.5156 C1715.2656,131.5156 1715.0313,131.4063 1714.8906,131.2656 C1714.75,131.1406 1714.7188,131.0156 1714.6563,130.6094 C1714.5625,130.2031 1714.3906,129.9844 1713.9063,129.7031 C1713.4375,129.4531 1712.8281,129.2969 1712.25,129.2969 C1710.5156,129.2969 1709.2656,130.6094 1709.2656,132.3906 L1709.2656,133.4844 C1709.2656,135.1875 1710.5625,136.2813 1712.6094,136.2813 C1713.375,136.2813 1714.0625,136.1563 1714.4844,135.8906 C1714.6719,135.7969 1714.6719,135.7969 1715.125,135.3125 C1715.3125,135.125 1715.5156,135.0469 1715.7344,135.0469 C1716.2031,135.0469 1716.5938,135.4375 1716.5938,135.8906 C1716.5938,136.2813 1716.2656,136.7344 1715.6875,137.1406 C1714.9375,137.6875 1713.7813,137.9844 1712.5625,137.9844 C1709.6719,137.9844 1707.5625,136.0938 1707.5625,133.5156 L1707.5625,132.3906 C1707.5625,129.6719 1709.5625,127.5938 1712.1875,127.5938 C1713.0625,127.5938 1713.6563,127.7344 1714.5938,128.1719 Z "/><text fill="#000000" font-family="sans-serif" font-size="12" lengthAdjust="spacingAndGlyphs" textLength="101" x="1732.75" y="136.6543">DataSourceTest</text><line style="stroke: #A80036; stroke-width: 1.5;" x1="1660" x2="1874" y1="148.5" y2="148.5"/><text fill="#000000" font-family="sans-serif" font-size="11" lengthAdjust="spacingAndGlyphs" textLength="177" x="1665" y="179.5151">+fillAllDailyPhrasesTest() : void</text><text fill="#000000" font-family="sans-serif" font-size="11" lengthAdjust="spacingAndGlyphs" textLength="204" x="1665" y="192.3198">+fillAllProjectCategoriesTest() : void</text><text fill="#000000" font-family="sans-serif" font-size="11" lengthAdjust="spacingAndGlyphs" textLength="149" x="1665" y="205.1245">+fillAllProjectsTest() : void</text><line style="stroke: #A80036; stroke-width: 1.0; stroke-dasharray: 1.0,2.0;" x1="1660" x2="1743" y1="162.9023" y2="162.9023"/><text fill="#000000" font-family="sans-serif" font-size="11" lengthAdjust="spacingAndGlyphs" textLength="48" x="1743" y="166.2104">Methods</text><line style="stroke: #A80036; stroke-width: 1.0; stroke-dasharray: 1.0,2.0;" x1="1791" x2="1874" y1="162.9023" y2="162.9023"/><rect fill="#FEFECE" filter="url(#f1)" height="108.0234" style="stroke: #A80036; stroke-width: 1.5;" width="163" x="1024.5" y="338.5"/><ellipse cx="1087.75" cy="354.5" fill="#ADD1B2" rx="11" ry="11" style="stroke: #A80036; stroke-width: 1.0;"/><path d="M1090.0938,350.1719 L1090.2656,350.25 C1090.4844,349.9375 1090.6875,349.8438 1090.9844,349.8438 C1091.2813,349.8438 1091.5625,349.9844 1091.7188,350.25 C1091.8125,350.4063 1091.8281,350.5313 1091.8281,350.9688 L1091.8281,352.3906 C1091.8281,352.8125 1091.7969,353 1091.6875,353.1563 C1091.5156,353.375 1091.25,353.5156 1090.9844,353.5156 C1090.7656,353.5156 1090.5313,353.4063 1090.3906,353.2656 C1090.25,353.1406 1090.2188,353.0156 1090.1563,352.6094 C1090.0625,352.2031 1089.8906,351.9844 1089.4063,351.7031 C1088.9375,351.4531 1088.3281,351.2969 1087.75,351.2969 C1086.0156,351.2969 1084.7656,352.6094 1084.7656,354.3906 L1084.7656,355.4844 C1084.7656,357.1875 1086.0625,358.2813 1088.1094,358.2813 C1088.875,358.2813 1089.5625,358.1563 1089.9844,357.8906 C1090.1719,357.7969 1090.1719,357.7969 1090.625,357.3125 C1090.8125,357.125 1091.0156,357.0469 1091.2344,357.0469 C1091.7031,357.0469 1092.0938,357.4375 1092.0938,357.8906 C1092.0938,358.2813 1091.7656,358.7344 1091.1875,359.1406 C1090.4375,359.6875 1089.2813,359.9844 1088.0625,359.9844 C1085.1719,359.9844 1083.0625,358.0938 1083.0625,355.5156 L1083.0625,354.3906 C1083.0625,351.6719 1085.0625,349.5938 1087.6875,349.5938 C1088.5625,349.5938 1089.1563,349.7344 1090.0938,350.1719 Z "/><text fill="#000000" font-family="sans-serif" font-size="12" lengthAdjust="spacingAndGlyphs" textLength="28" x="1108.25" y="358.6543">View</text><line style="stroke: #A80036; stroke-width: 1.5;" x1="1025.5" x2="1186.5" y1="370.5" y2="370.5"/><text fill="#000000" font-family="sans-serif" font-size="11" lengthAdjust="spacingAndGlyphs" textLength="119" x="1030.5" y="401.5151">#drawDivider() : void</text><text fill="#000000" font-family="sans-serif" font-size="11" lengthAdjust="spacingAndGlyphs" textLength="151" x="1030.5" y="414.3198">#drawHeaderBlock() : void</text><text fill="#000000" font-family="sans-serif" font-size="11" lengthAdjust="spacingAndGlyphs" textLength="114" x="1030.5" y="427.1245">+generate() : String</text><text fill="#000000" font-family="sans-serif" font-size="11" lengthAdjust="spacingAndGlyphs" textLength="117" x="1030.5" y="439.9292">#readInput() : String</text><line style="stroke: #A80036; stroke-width: 1.0; stroke-dasharray: 1.0,2.0;" x1="1025.5" x2="1082" y1="384.9023" y2="384.9023"/><text fill="#000000" font-family="sans-serif" font-size="11" lengthAdjust="spacingAndGlyphs" textLength="48" x="1082" y="388.2104">Methods</text><line style="stroke: #A80036; stroke-width: 1.0; stroke-dasharray: 1.0,2.0;" x1="1130" x2="1186.5" y1="384.9023" y2="384.9023"/><rect fill="#FEFECE" filter="url(#f1)" height="112.0234" style="stroke: #A80036; stroke-width: 1.5;" width="208" x="334" y="584.5"/><ellipse cx="349" cy="600.5" fill="#ADD1B2" rx="11" ry="11" style="stroke: #A80036; stroke-width: 1.0;"/><path d="M351.3438,596.1719 L351.5156,596.25 C351.7344,595.9375 351.9375,595.8438 352.2344,595.8438 C352.5313,595.8438 352.8125,595.9844 352.9688,596.25 C353.0625,596.4063 353.0781,596.5313 353.0781,596.9688 L353.0781,598.3906 C353.0781,598.8125 353.0469,599 352.9375,599.1563 C352.7656,599.375 352.5,599.5156 352.2344,599.5156 C352.0156,599.5156 351.7813,599.4063 351.6406,599.2656 C351.5,599.1406 351.4688,599.0156 351.4063,598.6094 C351.3125,598.2031 351.1406,597.9844 350.6563,597.7031 C350.1875,597.4531 349.5781,597.2969 349,597.2969 C347.2656,597.2969 346.0156,598.6094 346.0156,600.3906 L346.0156,601.4844 C346.0156,603.1875 347.3125,604.2813 349.3594,604.2813 C350.125,604.2813 350.8125,604.1563 351.2344,603.8906 C351.4219,603.7969 351.4219,603.7969 351.875,603.3125 C352.0625,603.125 352.2656,603.0469 352.4844,603.0469 C352.9531,603.0469 353.3438,603.4375 353.3438,603.8906 C353.3438,604.2813 353.0156,604.7344 352.4375,605.1406 C351.6875,605.6875 350.5313,605.9844 349.3125,605.9844 C346.4219,605.9844 344.3125,604.0938 344.3125,601.5156 L344.3125,600.3906 C344.3125,597.6719 346.3125,595.5938 348.9375,595.5938 C349.8125,595.5938 350.4063,595.7344 351.3438,596.1719 Z "/><text fill="#000000" font-family="sans-serif" font-size="12" lengthAdjust="spacingAndGlyphs" textLength="79" x="363" y="604.6543">ViewProjects</text><rect fill="#FFFFFF" height="15.9688" style="stroke: #000000; stroke-width: 1.0; stroke-dasharray: 2.0,2.0;" width="95" x="450" y="581.5"/><text fill="#000000" font-family="sans-serif" font-size="12" font-style="italic" lengthAdjust="spacingAndGlyphs" textLength="93" x="451" y="593.6387">? extends View</text><line style="stroke: #A80036; stroke-width: 1.5;" x1="335" x2="541" y1="616.5" y2="616.5"/><text fill="#000000" font-family="sans-serif" font-size="11" lengthAdjust="spacingAndGlyphs" textLength="132" x="340" y="647.5151">-categoryName : String</text><text fill="#000000" font-family="sans-serif" font-size="11" lengthAdjust="spacingAndGlyphs" textLength="82" x="340" y="660.3198">-projects : List</text><line style="stroke: #A80036; stroke-width: 1.0; stroke-dasharray: 1.0,2.0;" x1="335" x2="421.5" y1="630.9023" y2="630.9023"/><text fill="#000000" font-family="sans-serif" font-size="11" lengthAdjust="spacingAndGlyphs" textLength="33" x="421.5" y="634.2104">Fields</text><line style="stroke: #A80036; stroke-width: 1.0; stroke-dasharray: 1.0,2.0;" x1="454.5" x2="541" y1="630.9023" y2="630.9023"/><text fill="#000000" font-family="sans-serif" font-size="11" lengthAdjust="spacingAndGlyphs" textLength="114" x="340" y="689.9292">+generate() : String</text><line style="stroke: #A80036; stroke-width: 1.0; stroke-dasharray: 1.0,2.0;" x1="335" x2="414" y1="673.3164" y2="673.3164"/><text fill="#000000" font-family="sans-serif" font-size="11" lengthAdjust="spacingAndGlyphs" textLength="48" x="414" y="676.6245">Methods</text><line style="stroke: #A80036; stroke-width: 1.0; stroke-dasharray: 1.0,2.0;" x1="462" x2="541" y1="673.3164" y2="673.3164"/><rect fill="#FEFECE" filter="url(#f1)" height="210.4609" style="stroke: #A80036; stroke-width: 1.5;" width="205" x="1910.5" y="59"/><ellipse cx="1973.25" cy="75" fill="#ADD1B2" rx="11" ry="11" style="stroke: #A80036; stroke-width: 1.0;"/><path d="M1975.5938,70.6719 L1975.7656,70.75 C1975.9844,70.4375 1976.1875,70.3438 1976.4844,70.3438 C1976.7813,70.3438 1977.0625,70.4844 1977.2188,70.75 C1977.3125,70.9063 1977.3281,71.0313 1977.3281,71.4688 L1977.3281,72.8906 C1977.3281,73.3125 1977.2969,73.5 1977.1875,73.6563 C1977.0156,73.875 1976.75,74.0156 1976.4844,74.0156 C1976.2656,74.0156 1976.0313,73.9063 1975.8906,73.7656 C1975.75,73.6406 1975.7188,73.5156 1975.6563,73.1094 C1975.5625,72.7031 1975.3906,72.4844 1974.9063,72.2031 C1974.4375,71.9531 1973.8281,71.7969 1973.25,71.7969 C1971.5156,71.7969 1970.2656,73.1094 1970.2656,74.8906 L1970.2656,75.9844 C1970.2656,77.6875 1971.5625,78.7813 1973.6094,78.7813 C1974.375,78.7813 1975.0625,78.6563 1975.4844,78.3906 C1975.6719,78.2969 1975.6719,78.2969 1976.125,77.8125 C1976.3125,77.625 1976.5156,77.5469 1976.7344,77.5469 C1977.2031,77.5469 1977.5938,77.9375 1977.5938,78.3906 C1977.5938,78.7813 1977.2656,79.2344 1976.6875,79.6406 C1975.9375,80.1875 1974.7813,80.4844 1973.5625,80.4844 C1970.6719,80.4844 1968.5625,78.5938 1968.5625,76.0156 L1968.5625,74.8906 C1968.5625,72.1719 1970.5625,70.0938 1973.1875,70.0938 C1974.0625,70.0938 1974.6563,70.2344 1975.5938,70.6719 Z "/><text fill="#000000" font-family="sans-serif" font-size="12" lengthAdjust="spacingAndGlyphs" textLength="71" x="1993.75" y="79.1543">ProjectTest</text><line style="stroke: #A80036; stroke-width: 1.5;" x1="1911.5" x2="2114.5" y1="91" y2="91"/><text fill="#000000" font-family="sans-serif" font-size="11" lengthAdjust="spacingAndGlyphs" textLength="156" x="1916.5" y="122.0151">+getCategoryIdTest() : void</text><text fill="#000000" font-family="sans-serif" font-size="11" lengthAdjust="spacingAndGlyphs" textLength="179" x="1916.5" y="134.8198">+getCategoryNameTest() : void</text><text fill="#000000" font-family="sans-serif" font-size="11" lengthAdjust="spacingAndGlyphs" textLength="166" x="1916.5" y="147.6245">+setGetCategoryTest() : void</text><text fill="#000000" font-family="sans-serif" font-size="11" lengthAdjust="spacingAndGlyphs" textLength="193" x="1916.5" y="160.4292">+setGetCollectedSumTest() : void</text><text fill="#000000" font-family="sans-serif" font-size="11" lengthAdjust="spacingAndGlyphs" textLength="164" x="1916.5" y="173.2339">+setGetDaysLeftTest() : void</text><text fill="#000000" font-family="sans-serif" font-size="11" lengthAdjust="spacingAndGlyphs" textLength="179" x="1916.5" y="186.0386">+setGetDescriptionTest() : void</text><text fill="#000000" font-family="sans-serif" font-size="11" lengthAdjust="spacingAndGlyphs" textLength="193" x="1916.5" y="198.8433">+setGetDiscussionUrlTest() : void</text><text fill="#000000" font-family="sans-serif" font-size="11" lengthAdjust="spacingAndGlyphs" textLength="155" x="1916.5" y="211.6479">+setGetHistoryTest() : void</text><text fill="#000000" font-family="sans-serif" font-size="11" lengthAdjust="spacingAndGlyphs" textLength="125" x="1916.5" y="224.4526">+setGetIdTest() : void</text><text fill="#000000" font-family="sans-serif" font-size="11" lengthAdjust="spacingAndGlyphs" textLength="148" x="1916.5" y="237.2573">+setGetNameTest() : void</text><text fill="#000000" font-family="sans-serif" font-size="11" lengthAdjust="spacingAndGlyphs" textLength="191" x="1916.5" y="250.062">+setGetRequiredSumTest() : void</text><text fill="#000000" font-family="sans-serif" font-size="11" lengthAdjust="spacingAndGlyphs" textLength="162" x="1916.5" y="262.8667">+setGetVideoUrlTest() : void</text><line style="stroke: #A80036; stroke-width: 1.0; stroke-dasharray: 1.0,2.0;" x1="1911.5" x2="1989" y1="105.4023" y2="105.4023"/><text fill="#000000" font-family="sans-serif" font-size="11" lengthAdjust="spacingAndGlyphs" textLength="48" x="1989" y="108.7104">Methods</text><line style="stroke: #A80036; stroke-width: 1.0; stroke-dasharray: 1.0,2.0;" x1="2037" x2="2114.5" y1="105.4023" y2="105.4023"/><rect fill="#FEFECE" filter="url(#f1)" height="99.2188" style="stroke: #A80036; stroke-width: 1.5;" width="188" x="1381" y="591"/><ellipse cx="1396" cy="607" fill="#ADD1B2" rx="11" ry="11" style="stroke: #A80036; stroke-width: 1.0;"/><path d="M1398.3438,602.6719 L1398.5156,602.75 C1398.7344,602.4375 1398.9375,602.3438 1399.2344,602.3438 C1399.5313,602.3438 1399.8125,602.4844 1399.9688,602.75 C1400.0625,602.9063 1400.0781,603.0313 1400.0781,603.4688 L1400.0781,604.8906 C1400.0781,605.3125 1400.0469,605.5 1399.9375,605.6563 C1399.7656,605.875 1399.5,606.0156 1399.2344,606.0156 C1399.0156,606.0156 1398.7813,605.9063 1398.6406,605.7656 C1398.5,605.6406 1398.4688,605.5156 1398.4063,605.1094 C1398.3125,604.7031 1398.1406,604.4844 1397.6563,604.2031 C1397.1875,603.9531 1396.5781,603.7969 1396,603.7969 C1394.2656,603.7969 1393.0156,605.1094 1393.0156,606.8906 L1393.0156,607.9844 C1393.0156,609.6875 1394.3125,610.7813 1396.3594,610.7813 C1397.125,610.7813 1397.8125,610.6563 1398.2344,610.3906 C1398.4219,610.2969 1398.4219,610.2969 1398.875,609.8125 C1399.0625,609.625 1399.2656,609.5469 1399.4844,609.5469 C1399.9531,609.5469 1400.3438,609.9375 1400.3438,610.3906 C1400.3438,610.7813 1400.0156,611.2344 1399.4375,611.6406 C1398.6875,612.1875 1397.5313,612.4844 1396.3125,612.4844 C1393.4219,612.4844 1391.3125,610.5938 1391.3125,608.0156 L1391.3125,606.8906 C1391.3125,604.1719 1393.3125,602.0938 1395.9375,602.0938 C1396.8125,602.0938 1397.4063,602.2344 1398.3438,602.6719 Z "/><text fill="#000000" font-family="sans-serif" font-size="12" lengthAdjust="spacingAndGlyphs" textLength="59" x="1410" y="611.1543">ViewError</text><rect fill="#FFFFFF" height="15.9688" style="stroke: #000000; stroke-width: 1.0; stroke-dasharray: 2.0,2.0;" width="95" x="1477" y="588"/><text fill="#000000" font-family="sans-serif" font-size="12" font-style="italic" lengthAdjust="spacingAndGlyphs" textLength="93" x="1478" y="600.1387">? extends View</text><line style="stroke: #A80036; stroke-width: 1.5;" x1="1382" x2="1568" y1="623" y2="623"/><text fill="#000000" font-family="sans-serif" font-size="11" lengthAdjust="spacingAndGlyphs" textLength="74" x="1387" y="654.0151">-error : Error</text><line style="stroke: #A80036; stroke-width: 1.0; stroke-dasharray: 1.0,2.0;" x1="1382" x2="1458.5" y1="637.4023" y2="637.4023"/><text fill="#000000" font-family="sans-serif" font-size="11" lengthAdjust="spacingAndGlyphs" textLength="33" x="1458.5" y="640.7104">Fields</text><line style="stroke: #A80036; stroke-width: 1.0; stroke-dasharray: 1.0,2.0;" x1="1491.5" x2="1568" y1="637.4023" y2="637.4023"/><text fill="#000000" font-family="sans-serif" font-size="11" lengthAdjust="spacingAndGlyphs" textLength="114" x="1387" y="683.6245">+generate() : String</text><line style="stroke: #A80036; stroke-width: 1.0; stroke-dasharray: 1.0,2.0;" x1="1382" x2="1451" y1="667.0117" y2="667.0117"/><text fill="#000000" font-family="sans-serif" font-size="11" lengthAdjust="spacingAndGlyphs" textLength="48" x="1451" y="670.3198">Methods</text><line style="stroke: #A80036; stroke-width: 1.0; stroke-dasharray: 1.0,2.0;" x1="1499" x2="1568" y1="667.0117" y2="667.0117"/><rect fill="#FEFECE" filter="url(#f1)" height="69.6094" style="stroke: #A80036; stroke-width: 1.5;" width="101" x="2150.5" y="129"/><ellipse cx="2165.5" cy="145" fill="#ADD1B2" rx="11" ry="11" style="stroke: #A80036; stroke-width: 1.0;"/><path d="M2167.8438,140.6719 L2168.0156,140.75 C2168.2344,140.4375 2168.4375,140.3438 2168.7344,140.3438 C2169.0313,140.3438 2169.3125,140.4844 2169.4688,140.75 C2169.5625,140.9063 2169.5781,141.0313 2169.5781,141.4688 L2169.5781,142.8906 C2169.5781,143.3125 2169.5469,143.5 2169.4375,143.6563 C2169.2656,143.875 2169,144.0156 2168.7344,144.0156 C2168.5156,144.0156 2168.2813,143.9063 2168.1406,143.7656 C2168,143.6406 2167.9688,143.5156 2167.9063,143.1094 C2167.8125,142.7031 2167.6406,142.4844 2167.1563,142.2031 C2166.6875,141.9531 2166.0781,141.7969 2165.5,141.7969 C2163.7656,141.7969 2162.5156,143.1094 2162.5156,144.8906 L2162.5156,145.9844 C2162.5156,147.6875 2163.8125,148.7813 2165.8594,148.7813 C2166.625,148.7813 2167.3125,148.6563 2167.7344,148.3906 C2167.9219,148.2969 2167.9219,148.2969 2168.375,147.8125 C2168.5625,147.625 2168.7656,147.5469 2168.9844,147.5469 C2169.4531,147.5469 2169.8438,147.9375 2169.8438,148.3906 C2169.8438,148.7813 2169.5156,149.2344 2168.9375,149.6406 C2168.1875,150.1875 2167.0313,150.4844 2165.8125,150.4844 C2162.9219,150.4844 2160.8125,148.5938 2160.8125,146.0156 L2160.8125,144.8906 C2160.8125,142.1719 2162.8125,140.0938 2165.4375,140.0938 C2166.3125,140.0938 2166.9063,140.2344 2167.8438,140.6719 Z "/><text fill="#000000" font-family="sans-serif" font-size="12" lengthAdjust="spacingAndGlyphs" textLength="69" x="2179.5" y="149.1543">Application</text><line style="stroke: #A80036; stroke-width: 1.5;" x1="2151.5" x2="2250.5" y1="161" y2="161"/><text fill="#000000" font-family="sans-serif" font-size="11" lengthAdjust="spacingAndGlyphs" textLength="79" x="2156.5" y="192.0151">+start() : void</text><line style="stroke: #A80036; stroke-width: 1.0; stroke-dasharray: 1.0,2.0;" x1="2151.5" x2="2177" y1="175.4023" y2="175.4023"/><text fill="#000000" font-family="sans-serif" font-size="11" lengthAdjust="spacingAndGlyphs" textLength="48" x="2177" y="178.7104">Methods</text><line style="stroke: #A80036; stroke-width: 1.0; stroke-dasharray: 1.0,2.0;" x1="2225" x2="2250.5" y1="175.4023" y2="175.4023"/><rect fill="#FEFECE" filter="url(#f1)" height="248.875" style="stroke: #A80036; stroke-width: 1.5;" width="224" x="75" y="516"/><ellipse cx="145.75" cy="532" fill="#ADD1B2" rx="11" ry="11" style="stroke: #A80036; stroke-width: 1.0;"/><path d="M148.0938,527.6719 L148.2656,527.75 C148.4844,527.4375 148.6875,527.3438 148.9844,527.3438 C149.2813,527.3438 149.5625,527.4844 149.7188,527.75 C149.8125,527.9063 149.8281,528.0313 149.8281,528.4688 L149.8281,529.8906 C149.8281,530.3125 149.7969,530.5 149.6875,530.6563 C149.5156,530.875 149.25,531.0156 148.9844,531.0156 C148.7656,531.0156 148.5313,530.9063 148.3906,530.7656 C148.25,530.6406 148.2188,530.5156 148.1563,530.1094 C148.0625,529.7031 147.8906,529.4844 147.4063,529.2031 C146.9375,528.9531 146.3281,528.7969 145.75,528.7969 C144.0156,528.7969 142.7656,530.1094 142.7656,531.8906 L142.7656,532.9844 C142.7656,534.6875 144.0625,535.7813 146.1094,535.7813 C146.875,535.7813 147.5625,535.6563 147.9844,535.3906 C148.1719,535.2969 148.1719,535.2969 148.625,534.8125 C148.8125,534.625 149.0156,534.5469 149.2344,534.5469 C149.7031,534.5469 150.0938,534.9375 150.0938,535.3906 C150.0938,535.7813 149.7656,536.2344 149.1875,536.6406 C148.4375,537.1875 147.2813,537.4844 146.0625,537.4844 C143.1719,537.4844 141.0625,535.5938 141.0625,533.0156 L141.0625,531.8906 C141.0625,529.1719 143.0625,527.0938 145.6875,527.0938 C146.5625,527.0938 147.1563,527.2344 148.0938,527.6719 Z "/><text fill="#000000" font-family="sans-serif" font-size="12" lengthAdjust="spacingAndGlyphs" textLength="74" x="166.25" y="536.1543">DataSource</text><line style="stroke: #A80036; stroke-width: 1.5;" x1="76" x2="298" y1="548" y2="548"/><line style="stroke: #A80036; stroke-width: 1.0; stroke-dasharray: 1.0,2.0;" x1="76" x2="170.5" y1="562.4023" y2="562.4023"/><text fill="#000000" font-family="sans-serif" font-size="11" lengthAdjust="spacingAndGlyphs" textLength="33" x="170.5" y="565.7104">Fields</text><line style="stroke: #A80036; stroke-width: 1.0; stroke-dasharray: 1.0,2.0;" x1="203.5" x2="298" y1="562.4023" y2="562.4023"/><line style="stroke: #A80036; stroke-width: 1.0; stroke-dasharray: 1.0,2.0;" x1="76" x2="163" y1="581.6094" y2="581.6094"/><text fill="#000000" font-family="sans-serif" font-size="11" lengthAdjust="spacingAndGlyphs" textLength="48" x="163" y="584.9175">Methods</text><line style="stroke: #A80036; stroke-width: 1.0; stroke-dasharray: 1.0,2.0;" x1="211" x2="298" y1="581.6094" y2="581.6094"/><text fill="#000000" font-family="sans-serif" font-size="11" lengthAdjust="spacingAndGlyphs" text-decoration="underline" textLength="128" x="81" y="617.4292">+allDailyPhrases : List</text><line style="stroke: #000000; stroke-width: 1.0;" x1="81" x2="209" y1="619.4292" y2="619.4292"/><text fill="#000000" font-family="sans-serif" font-size="11" lengthAdjust="spacingAndGlyphs" text-decoration="underline" textLength="155" x="81" y="630.2339">+allProjectCategories : List</text><line style="stroke: #000000; stroke-width: 1.0;" x1="81" x2="236" y1="632.2339" y2="632.2339"/><text fill="#000000" font-family="sans-serif" font-size="11" lengthAdjust="spacingAndGlyphs" text-decoration="underline" textLength="100" x="81" y="643.0386">+allProjects : List</text><line style="stroke: #000000; stroke-width: 1.0;" x1="81" x2="181" y1="645.0386" y2="645.0386"/><text fill="#000000" font-family="sans-serif" font-size="11" lengthAdjust="spacingAndGlyphs" text-decoration="underline" textLength="152" x="81" y="655.8433">+fillAllDailyPhrases() : void</text><line style="stroke: #000000; stroke-width: 1.0;" x1="81" x2="233" y1="657.8433" y2="657.8433"/><text fill="#000000" font-family="sans-serif" font-size="11" lengthAdjust="spacingAndGlyphs" text-decoration="underline" textLength="179" x="81" y="668.6479">+fillAllProjectCategories() : void</text><line style="stroke: #000000; stroke-width: 1.0;" x1="81" x2="260" y1="670.6479" y2="670.6479"/><text fill="#000000" font-family="sans-serif" font-size="11" lengthAdjust="spacingAndGlyphs" text-decoration="underline" textLength="124" x="81" y="681.4526">+fillAllProjects() : void</text><line style="stroke: #000000; stroke-width: 1.0;" x1="81" x2="205" y1="683.4526" y2="683.4526"/><text fill="#000000" font-family="sans-serif" font-size="11" lengthAdjust="spacingAndGlyphs" text-decoration="underline" textLength="156" x="81" y="694.2573">-getProjectCategoryId() : int</text><line style="stroke: #000000; stroke-width: 1.0;" x1="81" x2="237" y1="696.2573" y2="696.2573"/><text fill="#000000" font-family="sans-serif" font-size="11" lengthAdjust="spacingAndGlyphs" text-decoration="underline" textLength="105" x="81" y="707.062">-getProjectId() : int</text><line style="stroke: #000000; stroke-width: 1.0;" x1="81" x2="186" y1="709.062" y2="709.062"/><text fill="#000000" font-family="sans-serif" font-size="11" lengthAdjust="spacingAndGlyphs" text-decoration="underline" textLength="188" x="81" y="719.8667">-idProjectCategoryGenerator : int</text><line style="stroke: #000000; stroke-width: 1.0;" x1="81" x2="269" y1="721.8667" y2="721.8667"/><text fill="#000000" font-family="sans-serif" font-size="11" lengthAdjust="spacingAndGlyphs" text-decoration="underline" textLength="137" x="81" y="732.6714">-idProjectGenerator : int</text><line style="stroke: #000000; stroke-width: 1.0;" x1="81" x2="218" y1="734.6714" y2="734.6714"/><text fill="#000000" font-family="sans-serif" font-size="11" lengthAdjust="spacingAndGlyphs" text-decoration="underline" textLength="161" x="81" y="745.4761">-makeAnotherProject() : void</text><line style="stroke: #000000; stroke-width: 1.0;" x1="81" x2="242" y1="747.4761" y2="747.4761"/><text fill="#000000" font-family="sans-serif" font-size="11" lengthAdjust="spacingAndGlyphs" text-decoration="underline" textLength="212" x="81" y="758.2808">-makeAnotherProjectCategory() : void</text><line style="stroke: #000000; stroke-width: 1.0;" x1="81" x2="293" y1="760.2808" y2="760.2808"/><line style="stroke: #A80036; stroke-width: 1.0; stroke-dasharray: 1.0,2.0;" x1="76" x2="171" y1="600.8164" y2="600.8164"/><text fill="#000000" font-family="sans-serif" font-size="11" lengthAdjust="spacingAndGlyphs" textLength="32" x="171" y="604.1245">Static</text><line style="stroke: #A80036; stroke-width: 1.0; stroke-dasharray: 1.0,2.0;" x1="203" x2="298" y1="600.8164" y2="600.8164"/><rect fill="#FEFECE" filter="url(#f1)" height="483.3594" style="stroke: #A80036; stroke-width: 1.5;" width="223" x="579.5" y="825"/><ellipse cx="664.75" cy="841" fill="#ADD1B2" rx="11" ry="11" style="stroke: #A80036; stroke-width: 1.0;"/><path d="M667.0938,836.6719 L667.2656,836.75 C667.4844,836.4375 667.6875,836.3438 667.9844,836.3438 C668.2813,836.3438 668.5625,836.4844 668.7188,836.75 C668.8125,836.9063 668.8281,837.0313 668.8281,837.4688 L668.8281,838.8906 C668.8281,839.3125 668.7969,839.5 668.6875,839.6563 C668.5156,839.875 668.25,840.0156 667.9844,840.0156 C667.7656,840.0156 667.5313,839.9063 667.3906,839.7656 C667.25,839.6406 667.2188,839.5156 667.1563,839.1094 C667.0625,838.7031 666.8906,838.4844 666.4063,838.2031 C665.9375,837.9531 665.3281,837.7969 664.75,837.7969 C663.0156,837.7969 661.7656,839.1094 661.7656,840.8906 L661.7656,841.9844 C661.7656,843.6875 663.0625,844.7813 665.1094,844.7813 C665.875,844.7813 666.5625,844.6563 666.9844,844.3906 C667.1719,844.2969 667.1719,844.2969 667.625,843.8125 C667.8125,843.625 668.0156,843.5469 668.2344,843.5469 C668.7031,843.5469 669.0938,843.9375 669.0938,844.3906 C669.0938,844.7813 668.7656,845.2344 668.1875,845.6406 C667.4375,846.1875 666.2813,846.4844 665.0625,846.4844 C662.1719,846.4844 660.0625,844.5938 660.0625,842.0156 L660.0625,840.8906 C660.0625,838.1719 662.0625,836.0938 664.6875,836.0938 C665.5625,836.0938 666.1563,836.2344 667.0938,836.6719 Z "/><text fill="#000000" font-family="sans-serif" font-size="12" lengthAdjust="spacingAndGlyphs" textLength="44" x="685.25" y="845.1543">Project</text><line style="stroke: #A80036; stroke-width: 1.5;" x1="580.5" x2="801.5" y1="857" y2="857"/><text fill="#000000" font-family="sans-serif" font-size="11" lengthAdjust="spacingAndGlyphs" textLength="155" x="585.5" y="888.0151">-category : ProjectCategory</text><text fill="#000000" font-family="sans-serif" font-size="11" lengthAdjust="spacingAndGlyphs" textLength="106" x="585.5" y="900.8198">-collectedSum : int</text><text fill="#000000" font-family="sans-serif" font-size="11" lengthAdjust="spacingAndGlyphs" textLength="78" x="585.5" y="913.6245">-daysLeft : int</text><text fill="#000000" font-family="sans-serif" font-size="11" lengthAdjust="spacingAndGlyphs" textLength="113" x="585.5" y="926.4292">-description : String</text><text fill="#000000" font-family="sans-serif" font-size="11" lengthAdjust="spacingAndGlyphs" textLength="127" x="585.5" y="939.2339">-discussionUrl : String</text><text fill="#000000" font-family="sans-serif" font-size="11" lengthAdjust="spacingAndGlyphs" textLength="89" x="585.5" y="952.0386">-history : String</text><text fill="#000000" font-family="sans-serif" font-size="11" lengthAdjust="spacingAndGlyphs" textLength="40" x="585.5" y="964.8433">-id : int</text><text fill="#000000" font-family="sans-serif" font-size="11" lengthAdjust="spacingAndGlyphs" textLength="82" x="585.5" y="977.6479">-name : String</text><text fill="#000000" font-family="sans-serif" font-size="11" lengthAdjust="spacingAndGlyphs" textLength="104" x="585.5" y="990.4526">-requiredSum : int</text><text fill="#000000" font-family="sans-serif" font-size="11" lengthAdjust="spacingAndGlyphs" textLength="96" x="585.5" y="1003.2573">-videoUrl : String</text><line style="stroke: #A80036; stroke-width: 1.0; stroke-dasharray: 1.0,2.0;" x1="580.5" x2="674.5" y1="871.4023" y2="871.4023"/><text fill="#000000" font-family="sans-serif" font-size="11" lengthAdjust="spacingAndGlyphs" textLength="33" x="674.5" y="874.7104">Fields</text><line style="stroke: #A80036; stroke-width: 1.0; stroke-dasharray: 1.0,2.0;" x1="707.5" x2="801.5" y1="871.4023" y2="871.4023"/><text fill="#000000" font-family="sans-serif" font-size="11" lengthAdjust="spacingAndGlyphs" textLength="188" x="585.5" y="1032.8667">+getCategory() : ProjectCategory</text><text fill="#000000" font-family="sans-serif" font-size="11" lengthAdjust="spacingAndGlyphs" textLength="122" x="585.5" y="1045.6714">+getCategoryId() : int</text><text fill="#000000" font-family="sans-serif" font-size="11" lengthAdjust="spacingAndGlyphs" textLength="165" x="585.5" y="1058.4761">+getCategoryName() : String</text><text fill="#000000" font-family="sans-serif" font-size="11" lengthAdjust="spacingAndGlyphs" textLength="139" x="585.5" y="1071.2808">+getCollectedSum() : int</text><text fill="#000000" font-family="sans-serif" font-size="11" lengthAdjust="spacingAndGlyphs" textLength="110" x="585.5" y="1084.0854">+getDaysLeft() : int</text><text fill="#000000" font-family="sans-serif" font-size="11" lengthAdjust="spacingAndGlyphs" textLength="145" x="585.5" y="1096.8901">+getDescription() : String</text><text fill="#000000" font-family="sans-serif" font-size="11" lengthAdjust="spacingAndGlyphs" textLength="159" x="585.5" y="1109.6948">+getDiscussionUrl() : String</text><text fill="#000000" font-family="sans-serif" font-size="11" lengthAdjust="spacingAndGlyphs" textLength="121" x="585.5" y="1122.4995">+getHistory() : String</text><text fill="#000000" font-family="sans-serif" font-size="11" lengthAdjust="spacingAndGlyphs" textLength="71" x="585.5" y="1135.3042">+getId() : int</text><text fill="#000000" font-family="sans-serif" font-size="11" lengthAdjust="spacingAndGlyphs" textLength="114" x="585.5" y="1148.1089">+getName() : String</text><text fill="#000000" font-family="sans-serif" font-size="11" lengthAdjust="spacingAndGlyphs" textLength="137" x="585.5" y="1160.9136">+getRequiredSum() : int</text><text fill="#000000" font-family="sans-serif" font-size="11" lengthAdjust="spacingAndGlyphs" textLength="128" x="585.5" y="1173.7183">+getVideoUrl() : String</text><text fill="#000000" font-family="sans-serif" font-size="11" lengthAdjust="spacingAndGlyphs" textLength="211" x="585.5" y="1186.5229">+setCategory(ProjectCategory) : void</text><text fill="#000000" font-family="sans-serif" font-size="11" lengthAdjust="spacingAndGlyphs" textLength="162" x="585.5" y="1199.3276">+setCollectedSum(int) : void</text><text fill="#000000" font-family="sans-serif" font-size="11" lengthAdjust="spacingAndGlyphs" textLength="133" x="585.5" y="1212.1323">+setDaysLeft(int) : void</text><text fill="#000000" font-family="sans-serif" font-size="11" lengthAdjust="spacingAndGlyphs" textLength="168" x="585.5" y="1224.937">+setDescription(String) : void</text><text fill="#000000" font-family="sans-serif" font-size="11" lengthAdjust="spacingAndGlyphs" textLength="182" x="585.5" y="1237.7417">+setDiscussionUrl(String) : void</text><text fill="#000000" font-family="sans-serif" font-size="11" lengthAdjust="spacingAndGlyphs" textLength="144" x="585.5" y="1250.5464">+setHistory(String) : void</text><text fill="#000000" font-family="sans-serif" font-size="11" lengthAdjust="spacingAndGlyphs" textLength="94" x="585.5" y="1263.3511">+setId(int) : void</text><text fill="#000000" font-family="sans-serif" font-size="11" lengthAdjust="spacingAndGlyphs" textLength="137" x="585.5" y="1276.1558">+setName(String) : void</text><text fill="#000000" font-family="sans-serif" font-size="11" lengthAdjust="spacingAndGlyphs" textLength="160" x="585.5" y="1288.9604">+setRequiredSum(int) : void</text><text fill="#000000" font-family="sans-serif" font-size="11" lengthAdjust="spacingAndGlyphs" textLength="151" x="585.5" y="1301.7651">+setVideoUrl(String) : void</text><line style="stroke: #A80036; stroke-width: 1.0; stroke-dasharray: 1.0,2.0;" x1="580.5" x2="667" y1="1016.2539" y2="1016.2539"/><text fill="#000000" font-family="sans-serif" font-size="11" lengthAdjust="spacingAndGlyphs" textLength="48" x="667" y="1019.562">Methods</text><line style="stroke: #A80036; stroke-width: 1.0; stroke-dasharray: 1.0,2.0;" x1="715" x2="801.5" y1="1016.2539" y2="1016.2539"/><rect fill="#FEFECE" filter="url(#f1)" height="88.8164" style="stroke: #A80036; stroke-width: 1.5;" width="100" x="1529" y="348"/><ellipse cx="1544" cy="364" fill="#ADD1B2" rx="11" ry="11" style="stroke: #A80036; stroke-width: 1.0;"/><path d="M1546.3438,359.6719 L1546.5156,359.75 C1546.7344,359.4375 1546.9375,359.3438 1547.2344,359.3438 C1547.5313,359.3438 1547.8125,359.4844 1547.9688,359.75 C1548.0625,359.9063 1548.0781,360.0313 1548.0781,360.4688 L1548.0781,361.8906 C1548.0781,362.3125 1548.0469,362.5 1547.9375,362.6563 C1547.7656,362.875 1547.5,363.0156 1547.2344,363.0156 C1547.0156,363.0156 1546.7813,362.9063 1546.6406,362.7656 C1546.5,362.6406 1546.4688,362.5156 1546.4063,362.1094 C1546.3125,361.7031 1546.1406,361.4844 1545.6563,361.2031 C1545.1875,360.9531 1544.5781,360.7969 1544,360.7969 C1542.2656,360.7969 1541.0156,362.1094 1541.0156,363.8906 L1541.0156,364.9844 C1541.0156,366.6875 1542.3125,367.7813 1544.3594,367.7813 C1545.125,367.7813 1545.8125,367.6563 1546.2344,367.3906 C1546.4219,367.2969 1546.4219,367.2969 1546.875,366.8125 C1547.0625,366.625 1547.2656,366.5469 1547.4844,366.5469 C1547.9531,366.5469 1548.3438,366.9375 1548.3438,367.3906 C1548.3438,367.7813 1548.0156,368.2344 1547.4375,368.6406 C1546.6875,369.1875 1545.5313,369.4844 1544.3125,369.4844 C1541.4219,369.4844 1539.3125,367.5938 1539.3125,365.0156 L1539.3125,363.8906 C1539.3125,361.1719 1541.3125,359.0938 1543.9375,359.0938 C1544.8125,359.0938 1545.4063,359.2344 1546.3438,359.6719 Z "/><text fill="#000000" font-family="sans-serif" font-size="12" lengthAdjust="spacingAndGlyphs" textLength="68" x="1558" y="368.1543">AppStarter</text><line style="stroke: #A80036; stroke-width: 1.5;" x1="1530" x2="1628" y1="380" y2="380"/><line style="stroke: #A80036; stroke-width: 1.0; stroke-dasharray: 1.0,2.0;" x1="1530" x2="1555" y1="394.4023" y2="394.4023"/><text fill="#000000" font-family="sans-serif" font-size="11" lengthAdjust="spacingAndGlyphs" textLength="48" x="1555" y="397.7104">Methods</text><line style="stroke: #A80036; stroke-width: 1.0; stroke-dasharray: 1.0,2.0;" x1="1603" x2="1628" y1="394.4023" y2="394.4023"/><text fill="#000000" font-family="sans-serif" font-size="11" lengthAdjust="spacingAndGlyphs" text-decoration="underline" textLength="80" x="1535" y="430.2222">+main() : void</text><line style="stroke: #000000; stroke-width: 1.0;" x1="1535" x2="1615" y1="432.2222" y2="432.2222"/><line style="stroke: #A80036; stroke-width: 1.0; stroke-dasharray: 1.0,2.0;" x1="1530" x2="1563" y1="413.6094" y2="413.6094"/><text fill="#000000" font-family="sans-serif" font-size="11" lengthAdjust="spacingAndGlyphs" textLength="32" x="1563" y="416.9175">Static</text><line style="stroke: #A80036; stroke-width: 1.0; stroke-dasharray: 1.0,2.0;" x1="1595" x2="1628" y1="413.6094" y2="413.6094"/><rect fill="#FEFECE" filter="url(#f1)" height="48" style="stroke: #A80036; stroke-width: 1.5;" width="158" x="1664" y="368.5"/><ellipse cx="1679" cy="384.5" fill="#ADD1B2" rx="11" ry="11" style="stroke: #A80036; stroke-width: 1.0;"/><path d="M1681.3438,380.1719 L1681.5156,380.25 C1681.7344,379.9375 1681.9375,379.8438 1682.2344,379.8438 C1682.5313,379.8438 1682.8125,379.9844 1682.9688,380.25 C1683.0625,380.4063 1683.0781,380.5313 1683.0781,380.9688 L1683.0781,382.3906 C1683.0781,382.8125 1683.0469,383 1682.9375,383.1563 C1682.7656,383.375 1682.5,383.5156 1682.2344,383.5156 C1682.0156,383.5156 1681.7813,383.4063 1681.6406,383.2656 C1681.5,383.1406 1681.4688,383.0156 1681.4063,382.6094 C1681.3125,382.2031 1681.1406,381.9844 1680.6563,381.7031 C1680.1875,381.4531 1679.5781,381.2969 1679,381.2969 C1677.2656,381.2969 1676.0156,382.6094 1676.0156,384.3906 L1676.0156,385.4844 C1676.0156,387.1875 1677.3125,388.2813 1679.3594,388.2813 C1680.125,388.2813 1680.8125,388.1563 1681.2344,387.8906 C1681.4219,387.7969 1681.4219,387.7969 1681.875,387.3125 C1682.0625,387.125 1682.2656,387.0469 1682.4844,387.0469 C1682.9531,387.0469 1683.3438,387.4375 1683.3438,387.8906 C1683.3438,388.2813 1683.0156,388.7344 1682.4375,389.1406 C1681.6875,389.6875 1680.5313,389.9844 1679.3125,389.9844 C1676.4219,389.9844 1674.3125,388.0938 1674.3125,385.5156 L1674.3125,384.3906 C1674.3125,381.6719 1676.3125,379.5938 1678.9375,379.5938 C1679.8125,379.5938 1680.4063,379.7344 1681.3438,380.1719 Z "/><text fill="#000000" font-family="sans-serif" font-size="12" lengthAdjust="spacingAndGlyphs" textLength="126" x="1693" y="388.6543">KickstarterTestSuite</text><line style="stroke: #A80036; stroke-width: 1.5;" x1="1665" x2="1821" y1="400.5" y2="400.5"/><line style="stroke: #A80036; stroke-width: 1.5;" x1="1665" x2="1821" y1="408.5" y2="408.5"/><rect fill="#FEFECE" filter="url(#f1)" height="188.8516" style="stroke: #A80036; stroke-width: 1.5;" width="293" x="959.5" y="69.5"/><ellipse cx="1056.75" cy="85.5" fill="#ADD1B2" rx="11" ry="11" style="stroke: #A80036; stroke-width: 1.0;"/><path d="M1059.0938,81.1719 L1059.2656,81.25 C1059.4844,80.9375 1059.6875,80.8438 1059.9844,80.8438 C1060.2813,80.8438 1060.5625,80.9844 1060.7188,81.25 C1060.8125,81.4063 1060.8281,81.5313 1060.8281,81.9688 L1060.8281,83.3906 C1060.8281,83.8125 1060.7969,84 1060.6875,84.1563 C1060.5156,84.375 1060.25,84.5156 1059.9844,84.5156 C1059.7656,84.5156 1059.5313,84.4063 1059.3906,84.2656 C1059.25,84.1406 1059.2188,84.0156 1059.1563,83.6094 C1059.0625,83.2031 1058.8906,82.9844 1058.4063,82.7031 C1057.9375,82.4531 1057.3281,82.2969 1056.75,82.2969 C1055.0156,82.2969 1053.7656,83.6094 1053.7656,85.3906 L1053.7656,86.4844 C1053.7656,88.1875 1055.0625,89.2813 1057.1094,89.2813 C1057.875,89.2813 1058.5625,89.1563 1058.9844,88.8906 C1059.1719,88.7969 1059.1719,88.7969 1059.625,88.3125 C1059.8125,88.125 1060.0156,88.0469 1060.2344,88.0469 C1060.7031,88.0469 1061.0938,88.4375 1061.0938,88.8906 C1061.0938,89.2813 1060.7656,89.7344 1060.1875,90.1406 C1059.4375,90.6875 1058.2813,90.9844 1057.0625,90.9844 C1054.1719,90.9844 1052.0625,89.0938 1052.0625,86.5156 L1052.0625,85.3906 C1052.0625,82.6719 1054.0625,80.5938 1056.6875,80.5938 C1057.5625,80.5938 1058.1563,80.7344 1059.0938,81.1719 Z "/><text fill="#000000" font-family="sans-serif" font-size="12" lengthAdjust="spacingAndGlyphs" textLength="90" x="1077.25" y="89.6543">ControllerMain</text><line style="stroke: #A80036; stroke-width: 1.5;" x1="960.5" x2="1251.5" y1="101.5" y2="101.5"/><text fill="#000000" font-family="sans-serif" font-size="11" lengthAdjust="spacingAndGlyphs" textLength="135" x="965.5" y="132.5151">-currentProject : Project</text><text fill="#000000" font-family="sans-serif" font-size="11" lengthAdjust="spacingAndGlyphs" textLength="237" x="965.5" y="145.3198">-currentProjectCategory : ProjectCategory</text><text fill="#000000" font-family="sans-serif" font-size="11" lengthAdjust="spacingAndGlyphs" textLength="109" x="965.5" y="158.1245">-currentView : View</text><text fill="#000000" font-family="sans-serif" font-size="11" lengthAdjust="spacingAndGlyphs" textLength="104" x="965.5" y="170.9292">-exitFlag : boolean</text><line style="stroke: #A80036; stroke-width: 1.0; stroke-dasharray: 1.0,2.0;" x1="960.5" x2="1089.5" y1="115.9023" y2="115.9023"/><text fill="#000000" font-family="sans-serif" font-size="11" lengthAdjust="spacingAndGlyphs" textLength="33" x="1089.5" y="119.2104">Fields</text><line style="stroke: #A80036; stroke-width: 1.0; stroke-dasharray: 1.0,2.0;" x1="1122.5" x2="1251.5" y1="115.9023" y2="115.9023"/><text fill="#000000" font-family="sans-serif" font-size="11" lengthAdjust="spacingAndGlyphs" textLength="281" x="965.5" y="200.5386">-handleViewProjectCategoriesResult(String) : void</text><text fill="#000000" font-family="sans-serif" font-size="11" lengthAdjust="spacingAndGlyphs" textLength="219" x="965.5" y="213.3433">-handleViewProjectResult(String) : void</text><text fill="#000000" font-family="sans-serif" font-size="11" lengthAdjust="spacingAndGlyphs" textLength="226" x="965.5" y="226.1479">-handleViewProjectsResult(String) : void</text><text fill="#000000" font-family="sans-serif" font-size="11" lengthAdjust="spacingAndGlyphs" textLength="204" x="965.5" y="238.9526">-showError(int, String, String) : void</text><text fill="#000000" font-family="sans-serif" font-size="11" lengthAdjust="spacingAndGlyphs" textLength="138" x="965.5" y="251.7573">+showMainMenu() : void</text><line style="stroke: #A80036; stroke-width: 1.0; stroke-dasharray: 1.0,2.0;" x1="960.5" x2="1082" y1="183.9258" y2="183.9258"/><text fill="#000000" font-family="sans-serif" font-size="11" lengthAdjust="spacingAndGlyphs" textLength="48" x="1082" y="187.2339">Methods</text><line style="stroke: #A80036; stroke-width: 1.0; stroke-dasharray: 1.0,2.0;" x1="1130" x2="1251.5" y1="183.9258" y2="183.9258"/><rect fill="#FEFECE" filter="url(#f1)" height="127.2305" style="stroke: #A80036; stroke-width: 1.5;" width="200" x="1857" y="329"/><ellipse cx="1894.5" cy="345" fill="#ADD1B2" rx="11" ry="11" style="stroke: #A80036; stroke-width: 1.0;"/><path d="M1896.8438,340.6719 L1897.0156,340.75 C1897.2344,340.4375 1897.4375,340.3438 1897.7344,340.3438 C1898.0313,340.3438 1898.3125,340.4844 1898.4688,340.75 C1898.5625,340.9063 1898.5781,341.0313 1898.5781,341.4688 L1898.5781,342.8906 C1898.5781,343.3125 1898.5469,343.5 1898.4375,343.6563 C1898.2656,343.875 1898,344.0156 1897.7344,344.0156 C1897.5156,344.0156 1897.2813,343.9063 1897.1406,343.7656 C1897,343.6406 1896.9688,343.5156 1896.9063,343.1094 C1896.8125,342.7031 1896.6406,342.4844 1896.1563,342.2031 C1895.6875,341.9531 1895.0781,341.7969 1894.5,341.7969 C1892.7656,341.7969 1891.5156,343.1094 1891.5156,344.8906 L1891.5156,345.9844 C1891.5156,347.6875 1892.8125,348.7813 1894.8594,348.7813 C1895.625,348.7813 1896.3125,348.6563 1896.7344,348.3906 C1896.9219,348.2969 1896.9219,348.2969 1897.375,347.8125 C1897.5625,347.625 1897.7656,347.5469 1897.9844,347.5469 C1898.4531,347.5469 1898.8438,347.9375 1898.8438,348.3906 C1898.8438,348.7813 1898.5156,349.2344 1897.9375,349.6406 C1897.1875,350.1875 1896.0313,350.4844 1894.8125,350.4844 C1891.9219,350.4844 1889.8125,348.5938 1889.8125,346.0156 L1889.8125,344.8906 C1889.8125,342.1719 1891.8125,340.0938 1894.4375,340.0938 C1895.3125,340.0938 1895.9063,340.2344 1896.8438,340.6719 Z "/><text fill="#000000" font-family="sans-serif" font-size="12" lengthAdjust="spacingAndGlyphs" textLength="118" x="1913.5" y="349.1543">DataSourceProject</text><line style="stroke: #A80036; stroke-width: 1.5;" x1="1858" x2="2056" y1="361" y2="361"/><line style="stroke: #A80036; stroke-width: 1.0; stroke-dasharray: 1.0,2.0;" x1="1858" x2="1933" y1="375.4023" y2="375.4023"/><text fill="#000000" font-family="sans-serif" font-size="11" lengthAdjust="spacingAndGlyphs" textLength="48" x="1933" y="378.7104">Methods</text><line style="stroke: #A80036; stroke-width: 1.0; stroke-dasharray: 1.0,2.0;" x1="1981" x2="2056" y1="375.4023" y2="375.4023"/><text fill="#000000" font-family="sans-serif" font-size="11" lengthAdjust="spacingAndGlyphs" text-decoration="underline" textLength="73" x="1863" y="411.2222">+add() : void</text><line style="stroke: #000000; stroke-width: 1.0;" x1="1863" x2="1936" y1="413.2222" y2="413.2222"/><text fill="#000000" font-family="sans-serif" font-size="11" lengthAdjust="spacingAndGlyphs" text-decoration="underline" textLength="87" x="1863" y="424.0269">+delete() : void</text><line style="stroke: #000000; stroke-width: 1.0;" x1="1863" x2="1950" y1="426.0269" y2="426.0269"/><text fill="#000000" font-family="sans-serif" font-size="11" lengthAdjust="spacingAndGlyphs" text-decoration="underline" textLength="188" x="1863" y="436.8315">+getProjectsByCategoryId() : List</text><line style="stroke: #000000; stroke-width: 1.0;" x1="1863" x2="2051" y1="438.8315" y2="438.8315"/><text fill="#000000" font-family="sans-serif" font-size="11" lengthAdjust="spacingAndGlyphs" text-decoration="underline" textLength="91" x="1863" y="449.6362">+update() : void</text><line style="stroke: #000000; stroke-width: 1.0;" x1="1863" x2="1954" y1="451.6362" y2="451.6362"/><line style="stroke: #A80036; stroke-width: 1.0; stroke-dasharray: 1.0,2.0;" x1="1858" x2="1941" y1="394.6094" y2="394.6094"/><text fill="#000000" font-family="sans-serif" font-size="11" lengthAdjust="spacingAndGlyphs" textLength="32" x="1941" y="397.9175">Static</text><line style="stroke: #A80036; stroke-width: 1.0; stroke-dasharray: 1.0,2.0;" x1="1973" x2="2056" y1="394.6094" y2="394.6094"/><rect fill="#FEFECE" filter="url(#f1)" height="150.4375" style="stroke: #A80036; stroke-width: 1.5;" width="149" x="1024.5" y="1368"/><ellipse cx="1047.15" cy="1384" fill="#ADD1B2" rx="11" ry="11" style="stroke: #A80036; stroke-width: 1.0;"/><path d="M1049.4938,1379.6719 L1049.6656,1379.75 C1049.8844,1379.4375 1050.0875,1379.3438 1050.3844,1379.3438 C1050.6813,1379.3438 1050.9625,1379.4844 1051.1188,1379.75 C1051.2125,1379.9063 1051.2281,1380.0313 1051.2281,1380.4688 L1051.2281,1381.8906 C1051.2281,1382.3125 1051.1969,1382.5 1051.0875,1382.6563 C1050.9156,1382.875 1050.65,1383.0156 1050.3844,1383.0156 C1050.1656,1383.0156 1049.9313,1382.9063 1049.7906,1382.7656 C1049.65,1382.6406 1049.6188,1382.5156 1049.5563,1382.1094 C1049.4625,1381.7031 1049.2906,1381.4844 1048.8063,1381.2031 C1048.3375,1380.9531 1047.7281,1380.7969 1047.15,1380.7969 C1045.4156,1380.7969 1044.1656,1382.1094 1044.1656,1383.8906 L1044.1656,1384.9844 C1044.1656,1386.6875 1045.4625,1387.7813 1047.5094,1387.7813 C1048.275,1387.7813 1048.9625,1387.6563 1049.3844,1387.3906 C1049.5719,1387.2969 1049.5719,1387.2969 1050.025,1386.8125 C1050.2125,1386.625 1050.4156,1386.5469 1050.6344,1386.5469 C1051.1031,1386.5469 1051.4938,1386.9375 1051.4938,1387.3906 C1051.4938,1387.7813 1051.1656,1388.2344 1050.5875,1388.6406 C1049.8375,1389.1875 1048.6813,1389.4844 1047.4625,1389.4844 C1044.5719,1389.4844 1042.4625,1387.5938 1042.4625,1385.0156 L1042.4625,1383.8906 C1042.4625,1381.1719 1044.4625,1379.0938 1047.0875,1379.0938 C1047.9625,1379.0938 1048.5563,1379.2344 1049.4938,1379.6719 Z "/><text fill="#000000" font-family="sans-serif" font-size="12" lengthAdjust="spacingAndGlyphs" textLength="100" x="1062.85" y="1388.1543">ProjectCategory</text><line style="stroke: #A80036; stroke-width: 1.5;" x1="1025.5" x2="1172.5" y1="1400" y2="1400"/><text fill="#000000" font-family="sans-serif" font-size="11" lengthAdjust="spacingAndGlyphs" textLength="40" x="1030.5" y="1431.0151">-id : int</text><text fill="#000000" font-family="sans-serif" font-size="11" lengthAdjust="spacingAndGlyphs" textLength="82" x="1030.5" y="1443.8198">-name : String</text><line style="stroke: #A80036; stroke-width: 1.0; stroke-dasharray: 1.0,2.0;" x1="1025.5" x2="1082.5" y1="1414.4023" y2="1414.4023"/><text fill="#000000" font-family="sans-serif" font-size="11" lengthAdjust="spacingAndGlyphs" textLength="33" x="1082.5" y="1417.7104">Fields</text><line style="stroke: #A80036; stroke-width: 1.0; stroke-dasharray: 1.0,2.0;" x1="1115.5" x2="1172.5" y1="1414.4023" y2="1414.4023"/><text fill="#000000" font-family="sans-serif" font-size="11" lengthAdjust="spacingAndGlyphs" textLength="71" x="1030.5" y="1473.4292">+getId() : int</text><text fill="#000000" font-family="sans-serif" font-size="11" lengthAdjust="spacingAndGlyphs" textLength="114" x="1030.5" y="1486.2339">+getName() : String</text><text fill="#000000" font-family="sans-serif" font-size="11" lengthAdjust="spacingAndGlyphs" textLength="94" x="1030.5" y="1499.0386">+setId(int) : void</text><text fill="#000000" font-family="sans-serif" font-size="11" lengthAdjust="spacingAndGlyphs" textLength="137" x="1030.5" y="1511.8433">+setName(String) : void</text><line style="stroke: #A80036; stroke-width: 1.0; stroke-dasharray: 1.0,2.0;" x1="1025.5" x2="1075" y1="1456.8164" y2="1456.8164"/><text fill="#000000" font-family="sans-serif" font-size="11" lengthAdjust="spacingAndGlyphs" textLength="48" x="1075" y="1460.1245">Methods</text><line style="stroke: #A80036; stroke-width: 1.0; stroke-dasharray: 1.0,2.0;" x1="1123" x2="1172.5" y1="1456.8164" y2="1456.8164"/><rect fill="#FEFECE" filter="url(#f1)" height="82.4141" style="stroke: #A80036; stroke-width: 1.5;" width="160" x="2092" y="351.5"/><ellipse cx="2107.45" cy="367.5" fill="#ADD1B2" rx="11" ry="11" style="stroke: #A80036; stroke-width: 1.0;"/><path d="M2109.7938,363.1719 L2109.9656,363.25 C2110.1844,362.9375 2110.3875,362.8438 2110.6844,362.8438 C2110.9813,362.8438 2111.2625,362.9844 2111.4188,363.25 C2111.5125,363.4063 2111.5281,363.5313 2111.5281,363.9688 L2111.5281,365.3906 C2111.5281,365.8125 2111.4969,366 2111.3875,366.1563 C2111.2156,366.375 2110.95,366.5156 2110.6844,366.5156 C2110.4656,366.5156 2110.2313,366.4063 2110.0906,366.2656 C2109.95,366.1406 2109.9188,366.0156 2109.8563,365.6094 C2109.7625,365.2031 2109.5906,364.9844 2109.1063,364.7031 C2108.6375,364.4531 2108.0281,364.2969 2107.45,364.2969 C2105.7156,364.2969 2104.4656,365.6094 2104.4656,367.3906 L2104.4656,368.4844 C2104.4656,370.1875 2105.7625,371.2813 2107.8094,371.2813 C2108.575,371.2813 2109.2625,371.1563 2109.6844,370.8906 C2109.8719,370.7969 2109.8719,370.7969 2110.325,370.3125 C2110.5125,370.125 2110.7156,370.0469 2110.9344,370.0469 C2111.4031,370.0469 2111.7938,370.4375 2111.7938,370.8906 C2111.7938,371.2813 2111.4656,371.7344 2110.8875,372.1406 C2110.1375,372.6875 2108.9813,372.9844 2107.7625,372.9844 C2104.8719,372.9844 2102.7625,371.0938 2102.7625,368.5156 L2102.7625,367.3906 C2102.7625,364.6719 2104.7625,362.5938 2107.3875,362.5938 C2108.2625,362.5938 2108.8563,362.7344 2109.7938,363.1719 Z "/><text fill="#000000" font-family="sans-serif" font-size="12" lengthAdjust="spacingAndGlyphs" textLength="127" x="2121.55" y="371.6543">ProjectCategoryTest</text><line style="stroke: #A80036; stroke-width: 1.5;" x1="2093" x2="2251" y1="383.5" y2="383.5"/><text fill="#000000" font-family="sans-serif" font-size="11" lengthAdjust="spacingAndGlyphs" textLength="125" x="2098" y="414.5151">+setGetIdTest() : void</text><text fill="#000000" font-family="sans-serif" font-size="11" lengthAdjust="spacingAndGlyphs" textLength="148" x="2098" y="427.3198">+setGetNameTest() : void</text><line style="stroke: #A80036; stroke-width: 1.0; stroke-dasharray: 1.0,2.0;" x1="2093" x2="2148" y1="397.9023" y2="397.9023"/><text fill="#000000" font-family="sans-serif" font-size="11" lengthAdjust="spacingAndGlyphs" textLength="48" x="2148" y="401.2104">Methods</text><line style="stroke: #A80036; stroke-width: 1.0; stroke-dasharray: 1.0,2.0;" x1="2196" x2="2251" y1="397.9023" y2="397.9023"/><rect fill="#FEFECE" filter="url(#f1)" height="112.0234" style="stroke: #A80036; stroke-width: 1.5;" width="269" x="840.5" y="584.5"/><ellipse cx="855.5" cy="600.5" fill="#ADD1B2" rx="11" ry="11" style="stroke: #A80036; stroke-width: 1.0;"/><path d="M857.8438,596.1719 L858.0156,596.25 C858.2344,595.9375 858.4375,595.8438 858.7344,595.8438 C859.0313,595.8438 859.3125,595.9844 859.4688,596.25 C859.5625,596.4063 859.5781,596.5313 859.5781,596.9688 L859.5781,598.3906 C859.5781,598.8125 859.5469,599 859.4375,599.1563 C859.2656,599.375 859,599.5156 858.7344,599.5156 C858.5156,599.5156 858.2813,599.4063 858.1406,599.2656 C858,599.1406 857.9688,599.0156 857.9063,598.6094 C857.8125,598.2031 857.6406,597.9844 857.1563,597.7031 C856.6875,597.4531 856.0781,597.2969 855.5,597.2969 C853.7656,597.2969 852.5156,598.6094 852.5156,600.3906 L852.5156,601.4844 C852.5156,603.1875 853.8125,604.2813 855.8594,604.2813 C856.625,604.2813 857.3125,604.1563 857.7344,603.8906 C857.9219,603.7969 857.9219,603.7969 858.375,603.3125 C858.5625,603.125 858.7656,603.0469 858.9844,603.0469 C859.4531,603.0469 859.8438,603.4375 859.8438,603.8906 C859.8438,604.2813 859.5156,604.7344 858.9375,605.1406 C858.1875,605.6875 857.0313,605.9844 855.8125,605.9844 C852.9219,605.9844 850.8125,604.0938 850.8125,601.5156 L850.8125,600.3906 C850.8125,597.6719 852.8125,595.5938 855.4375,595.5938 C856.3125,595.5938 856.9063,595.7344 857.8438,596.1719 Z "/><text fill="#000000" font-family="sans-serif" font-size="12" lengthAdjust="spacingAndGlyphs" textLength="140" x="869.5" y="604.6543">ViewProjectCategories</text><rect fill="#FFFFFF" height="15.9688" style="stroke: #000000; stroke-width: 1.0; stroke-dasharray: 2.0,2.0;" width="95" x="1017.5" y="581.5"/><text fill="#000000" font-family="sans-serif" font-size="12" font-style="italic" lengthAdjust="spacingAndGlyphs" textLength="93" x="1018.5" y="593.6387">? extends View</text><line style="stroke: #A80036; stroke-width: 1.5;" x1="841.5" x2="1108.5" y1="616.5" y2="616.5"/><text fill="#000000" font-family="sans-serif" font-size="11" lengthAdjust="spacingAndGlyphs" textLength="96" x="846.5" y="647.5151">-categories : List</text><text fill="#000000" font-family="sans-serif" font-size="11" lengthAdjust="spacingAndGlyphs" textLength="116" x="846.5" y="660.3198">-dailyPhrase : String</text><line style="stroke: #A80036; stroke-width: 1.0; stroke-dasharray: 1.0,2.0;" x1="841.5" x2="958.5" y1="630.9023" y2="630.9023"/><text fill="#000000" font-family="sans-serif" font-size="11" lengthAdjust="spacingAndGlyphs" textLength="33" x="958.5" y="634.2104">Fields</text><line style="stroke: #A80036; stroke-width: 1.0; stroke-dasharray: 1.0,2.0;" x1="991.5" x2="1108.5" y1="630.9023" y2="630.9023"/><text fill="#000000" font-family="sans-serif" font-size="11" lengthAdjust="spacingAndGlyphs" textLength="114" x="846.5" y="689.9292">+generate() : String</text><line style="stroke: #A80036; stroke-width: 1.0; stroke-dasharray: 1.0,2.0;" x1="841.5" x2="951" y1="673.3164" y2="673.3164"/><text fill="#000000" font-family="sans-serif" font-size="11" lengthAdjust="spacingAndGlyphs" textLength="48" x="951" y="676.6245">Methods</text><line style="stroke: #A80036; stroke-width: 1.0; stroke-dasharray: 1.0,2.0;" x1="999" x2="1108.5" y1="673.3164" y2="673.3164"/><rect fill="#FEFECE" filter="url(#f1)" height="82.4141" style="stroke: #A80036; stroke-width: 1.5;" width="215" x="1822.5" y="599.5"/><ellipse cx="1841.55" cy="615.5" fill="#ADD1B2" rx="11" ry="11" style="stroke: #A80036; stroke-width: 1.0;"/><path d="M1843.8938,611.1719 L1844.0656,611.25 C1844.2844,610.9375 1844.4875,610.8438 1844.7844,610.8438 C1845.0813,610.8438 1845.3625,610.9844 1845.5188,611.25 C1845.6125,611.4063 1845.6281,611.5313 1845.6281,611.9688 L1845.6281,613.3906 C1845.6281,613.8125 1845.5969,614 1845.4875,614.1563 C1845.3156,614.375 1845.05,614.5156 1844.7844,614.5156 C1844.5656,614.5156 1844.3313,614.4063 1844.1906,614.2656 C1844.05,614.1406 1844.0188,614.0156 1843.9563,613.6094 C1843.8625,613.2031 1843.6906,612.9844 1843.2063,612.7031 C1842.7375,612.4531 1842.1281,612.2969 1841.55,612.2969 C1839.8156,612.2969 1838.5656,613.6094 1838.5656,615.3906 L1838.5656,616.4844 C1838.5656,618.1875 1839.8625,619.2813 1841.9094,619.2813 C1842.675,619.2813 1843.3625,619.1563 1843.7844,618.8906 C1843.9719,618.7969 1843.9719,618.7969 1844.425,618.3125 C1844.6125,618.125 1844.8156,618.0469 1845.0344,618.0469 C1845.5031,618.0469 1845.8938,618.4375 1845.8938,618.8906 C1845.8938,619.2813 1845.5656,619.7344 1844.9875,620.1406 C1844.2375,620.6875 1843.0813,620.9844 1841.8625,620.9844 C1838.9719,620.9844 1836.8625,619.0938 1836.8625,616.5156 L1836.8625,615.3906 C1836.8625,612.6719 1838.8625,610.5938 1841.4875,610.5938 C1842.3625,610.5938 1842.9563,610.7344 1843.8938,611.1719 Z "/><text fill="#000000" font-family="sans-serif" font-size="12" lengthAdjust="spacingAndGlyphs" textLength="174" x="1856.45" y="619.6543">DataSourceDailyPhraseTest</text><line style="stroke: #A80036; stroke-width: 1.5;" x1="1823.5" x2="2036.5" y1="631.5" y2="631.5"/><text fill="#000000" font-family="sans-serif" font-size="11" lengthAdjust="spacingAndGlyphs" textLength="164" x="1828.5" y="662.5151">+getRandomOneTest() : void</text><text fill="#000000" font-family="sans-serif" font-size="11" lengthAdjust="spacingAndGlyphs" textLength="203" x="1828.5" y="675.3198">+preparePhraseDataSource() : void</text><line style="stroke: #A80036; stroke-width: 1.0; stroke-dasharray: 1.0,2.0;" x1="1823.5" x2="1906" y1="645.9023" y2="645.9023"/><text fill="#000000" font-family="sans-serif" font-size="11" lengthAdjust="spacingAndGlyphs" textLength="48" x="1906" y="649.2104">Methods</text><line style="stroke: #A80036; stroke-width: 1.0; stroke-dasharray: 1.0,2.0;" x1="1954" x2="2036.5" y1="645.9023" y2="645.9023"/><rect fill="#FEFECE" filter="url(#f1)" height="169.6445" style="stroke: #A80036; stroke-width: 1.5;" width="228" x="577" y="555.5"/><ellipse cx="614.95" cy="571.5" fill="#ADD1B2" rx="11" ry="11" style="stroke: #A80036; stroke-width: 1.0;"/><path d="M617.2938,567.1719 L617.4656,567.25 C617.6844,566.9375 617.8875,566.8438 618.1844,566.8438 C618.4813,566.8438 618.7625,566.9844 618.9188,567.25 C619.0125,567.4063 619.0281,567.5313 619.0281,567.9688 L619.0281,569.3906 C619.0281,569.8125 618.9969,570 618.8875,570.1563 C618.7156,570.375 618.45,570.5156 618.1844,570.5156 C617.9656,570.5156 617.7313,570.4063 617.5906,570.2656 C617.45,570.1406 617.4188,570.0156 617.3563,569.6094 C617.2625,569.2031 617.0906,568.9844 616.6063,568.7031 C616.1375,568.4531 615.5281,568.2969 614.95,568.2969 C613.2156,568.2969 611.9656,569.6094 611.9656,571.3906 L611.9656,572.4844 C611.9656,574.1875 613.2625,575.2813 615.3094,575.2813 C616.075,575.2813 616.7625,575.1563 617.1844,574.8906 C617.3719,574.7969 617.3719,574.7969 617.825,574.3125 C618.0125,574.125 618.2156,574.0469 618.4344,574.0469 C618.9031,574.0469 619.2938,574.4375 619.2938,574.8906 C619.2938,575.2813 618.9656,575.7344 618.3875,576.1406 C617.6375,576.6875 616.4813,576.9844 615.2625,576.9844 C612.3719,576.9844 610.2625,575.0938 610.2625,572.5156 L610.2625,571.3906 C610.2625,568.6719 612.2625,566.5938 614.8875,566.5938 C615.7625,566.5938 616.3563,566.7344 617.2938,567.1719 Z "/><text fill="#000000" font-family="sans-serif" font-size="12" lengthAdjust="spacingAndGlyphs" textLength="145" x="634.05" y="575.6543">DataSourceProjectTest</text><line style="stroke: #A80036; stroke-width: 1.5;" x1="578" x2="804" y1="587.5" y2="587.5"/><line style="stroke: #A80036; stroke-width: 1.0; stroke-dasharray: 1.0,2.0;" x1="578" x2="674.5" y1="601.9023" y2="601.9023"/><text fill="#000000" font-family="sans-serif" font-size="11" lengthAdjust="spacingAndGlyphs" textLength="33" x="674.5" y="605.2104">Fields</text><line style="stroke: #A80036; stroke-width: 1.0; stroke-dasharray: 1.0,2.0;" x1="707.5" x2="804" y1="601.9023" y2="601.9023"/><text fill="#000000" font-family="sans-serif" font-size="11" lengthAdjust="spacingAndGlyphs" textLength="98" x="583" y="637.7222">+addTest() : void</text><text fill="#000000" font-family="sans-serif" font-size="11" lengthAdjust="spacingAndGlyphs" textLength="112" x="583" y="650.5269">+deleteTest() : void</text><text fill="#000000" font-family="sans-serif" font-size="11" lengthAdjust="spacingAndGlyphs" textLength="216" x="583" y="663.3315">+getProjectsByCategoryIdTest() : void</text><text fill="#000000" font-family="sans-serif" font-size="11" lengthAdjust="spacingAndGlyphs" textLength="163" x="583" y="676.1362">+prepareDataSource() : void</text><text fill="#000000" font-family="sans-serif" font-size="11" lengthAdjust="spacingAndGlyphs" textLength="116" x="583" y="688.9409">+updateTest() : void</text><line style="stroke: #A80036; stroke-width: 1.0; stroke-dasharray: 1.0,2.0;" x1="578" x2="667" y1="621.1094" y2="621.1094"/><text fill="#000000" font-family="sans-serif" font-size="11" lengthAdjust="spacingAndGlyphs" textLength="48" x="667" y="624.4175">Methods</text><line style="stroke: #A80036; stroke-width: 1.0; stroke-dasharray: 1.0,2.0;" x1="715" x2="804" y1="621.1094" y2="621.1094"/><text fill="#000000" font-family="sans-serif" font-size="11" lengthAdjust="spacingAndGlyphs" text-decoration="underline" textLength="94" x="583" y="718.5503">-project : Project</text><line style="stroke: #000000; stroke-width: 1.0;" x1="583" x2="677" y1="720.5503" y2="720.5503"/><line style="stroke: #A80036; stroke-width: 1.0; stroke-dasharray: 1.0,2.0;" x1="578" x2="675" y1="701.9375" y2="701.9375"/><text fill="#000000" font-family="sans-serif" font-size="11" lengthAdjust="spacingAndGlyphs" textLength="32" x="675" y="705.2456">Static</text><line style="stroke: #A80036; stroke-width: 1.0; stroke-dasharray: 1.0,2.0;" x1="707" x2="804" y1="701.9375" y2="701.9375"/><rect fill="#FEFECE" filter="url(#f1)" height="88.8164" style="stroke: #A80036; stroke-width: 1.5;" width="179" x="2072.5" y="596"/><ellipse cx="2087.5" cy="612" fill="#ADD1B2" rx="11" ry="11" style="stroke: #A80036; stroke-width: 1.0;"/><path d="M2089.8438,607.6719 L2090.0156,607.75 C2090.2344,607.4375 2090.4375,607.3438 2090.7344,607.3438 C2091.0313,607.3438 2091.3125,607.4844 2091.4688,607.75 C2091.5625,607.9063 2091.5781,608.0313 2091.5781,608.4688 L2091.5781,609.8906 C2091.5781,610.3125 2091.5469,610.5 2091.4375,610.6563 C2091.2656,610.875 2091,611.0156 2090.7344,611.0156 C2090.5156,611.0156 2090.2813,610.9063 2090.1406,610.7656 C2090,610.6406 2089.9688,610.5156 2089.9063,610.1094 C2089.8125,609.7031 2089.6406,609.4844 2089.1563,609.2031 C2088.6875,608.9531 2088.0781,608.7969 2087.5,608.7969 C2085.7656,608.7969 2084.5156,610.1094 2084.5156,611.8906 L2084.5156,612.9844 C2084.5156,614.6875 2085.8125,615.7813 2087.8594,615.7813 C2088.625,615.7813 2089.3125,615.6563 2089.7344,615.3906 C2089.9219,615.2969 2089.9219,615.2969 2090.375,614.8125 C2090.5625,614.625 2090.7656,614.5469 2090.9844,614.5469 C2091.4531,614.5469 2091.8438,614.9375 2091.8438,615.3906 C2091.8438,615.7813 2091.5156,616.2344 2090.9375,616.6406 C2090.1875,617.1875 2089.0313,617.4844 2087.8125,617.4844 C2084.9219,617.4844 2082.8125,615.5938 2082.8125,613.0156 L2082.8125,611.8906 C2082.8125,609.1719 2084.8125,607.0938 2087.4375,607.0938 C2088.3125,607.0938 2088.9063,607.2344 2089.8438,607.6719 Z "/><text fill="#000000" font-family="sans-serif" font-size="12" lengthAdjust="spacingAndGlyphs" textLength="147" x="2101.5" y="616.1543">DataSourceDailyPhrase</text><line style="stroke: #A80036; stroke-width: 1.5;" x1="2073.5" x2="2250.5" y1="628" y2="628"/><line style="stroke: #A80036; stroke-width: 1.0; stroke-dasharray: 1.0,2.0;" x1="2073.5" x2="2138" y1="642.4023" y2="642.4023"/><text fill="#000000" font-family="sans-serif" font-size="11" lengthAdjust="spacingAndGlyphs" textLength="48" x="2138" y="645.7104">Methods</text><line style="stroke: #A80036; stroke-width: 1.0; stroke-dasharray: 1.0,2.0;" x1="2186" x2="2250.5" y1="642.4023" y2="642.4023"/><text fill="#000000" font-family="sans-serif" font-size="11" lengthAdjust="spacingAndGlyphs" text-decoration="underline" textLength="150" x="2078.5" y="678.2222">+getRandomOne() : String</text><line style="stroke: #000000; stroke-width: 1.0;" x1="2078.5" x2="2228.5" y1="680.2222" y2="680.2222"/><line style="stroke: #A80036; stroke-width: 1.0; stroke-dasharray: 1.0,2.0;" x1="2073.5" x2="2146" y1="661.6094" y2="661.6094"/><text fill="#000000" font-family="sans-serif" font-size="11" lengthAdjust="spacingAndGlyphs" textLength="32" x="2146" y="664.9175">Static</text><line style="stroke: #A80036; stroke-width: 1.0; stroke-dasharray: 1.0,2.0;" x1="2178" x2="2250.5" y1="661.6094" y2="661.6094"/><path d="M1099,1183.843 C1099,1243.872 1099,1315.308 1099,1367.8 " fill="none" style="stroke: #A80036; stroke-width: 1.0;"/><polygon fill="#FFFFFF" points="1099,1170.825,1095,1176.825,1099,1182.825,1103,1176.825,1099,1170.825" style="stroke: #A80036; stroke-width: 1.0;"/><text fill="#000000" font-family="sans-serif" font-size="13" lengthAdjust="spacingAndGlyphs" textLength="24" x="1073.8563" y="1356.97">1..1</text><path d="M1656.27,726.02 C1637.26,803.523 1609.38,917.185 1591.21,991.264 " fill="none" style="stroke: #A80036; stroke-width: 1.0;"/><polygon fill="#FFFFFF" points="1659.48,712.946,1654.166,717.8206,1656.6217,724.6006,1661.9357,719.7261,1659.48,712.946" style="stroke: #A80036; stroke-width: 1.0;"/><text fill="#000000" font-family="sans-serif" font-size="13" lengthAdjust="spacingAndGlyphs" textLength="24" x="1567.8019" y="980.4306">1..1</text><path d="M1145.93,464.17 C1168.83,504.69 1196.99,554.528 1217.42,590.698 " fill="none" style="stroke: #A80036; stroke-width: 1.0;"/><polygon fill="none" points="1139.73,467.43,1135.99,446.58,1151.92,460.54,1139.73,467.43" style="stroke: #A80036; stroke-width: 1.0;"/><path d="M1199.13,699.958 C1178.95,722.674 1153.77,747.407 1127,765 C1062.84,807.169 1030.95,785.687 965,825 C906.962,859.596 849.683,907.158 802.622,950.857 " fill="none" style="stroke: #A80036; stroke-width: 1.0;"/><polygon fill="#FFFFFF" points="1207.75,690.035,1200.7958,691.9425,1199.8818,699.0954,1206.836,697.1879,1207.75,690.035" style="stroke: #A80036; stroke-width: 1.0;"/><text fill="#000000" font-family="sans-serif" font-size="13" lengthAdjust="spacingAndGlyphs" textLength="24" x="810.5415" y="940.0278">1..1</text><path d="M1004.224,399.04 C889.527,409.05 700.631,437.15 559,516 C528.577,532.94 500.881,559.881 479.687,584.287 " fill="none" style="stroke: #A80036; stroke-width: 1.0;"/><polygon fill="none" points="1003.9,392.04,1024.4,397.4,1005.035,405.99,1003.9,392.04" style="stroke: #A80036; stroke-width: 1.0;"/><path d="M477.814,708.224 C505.236,754.18 543.128,817.682 579.369,878.419 " fill="none" style="stroke: #A80036; stroke-width: 1.0;"/><polygon fill="#A80036" points="471.075,696.931,470.7144,704.1331,477.2237,707.236,477.5844,700.0339,471.075,696.931" style="stroke: #A80036; stroke-width: 1.0;"/><text fill="#000000" font-family="sans-serif" font-size="13" lengthAdjust="spacingAndGlyphs" textLength="23" x="548.4809" y="862.9492">0..*</text><path d="M1206.32,430.55 C1256.03,451.51 1315.44,480.62 1363,516 C1391.33,537.07 1418.1,566.11 1438.36,590.734 " fill="none" style="stroke: #A80036; stroke-width: 1.0;"/><polygon fill="none" points="1203.62,437.01,1187.79,422.92,1208.95,424.06,1203.62,437.01" style="stroke: #A80036; stroke-width: 1.0;"/><path d="M1489.17,702.817 C1506.8,779.1 1536.89,909.262 1555.82,991.152 " fill="none" style="stroke: #A80036; stroke-width: 1.0;"/><polygon fill="#FFFFFF" points="1486.24,690.138,1483.6948,696.885,1488.9438,701.8294,1491.489,695.0824,1486.24,690.138" style="stroke: #A80036; stroke-width: 1.0;"/><text fill="#000000" font-family="sans-serif" font-size="13" lengthAdjust="spacingAndGlyphs" textLength="24" x="1529.0388" y="980.3079">1..1</text><path d="M812.373,1178.907 C881.256,1242.135 965.265,1319.245 1024.47,1373.592 " fill="none" style="stroke: #A80036; stroke-width: 1.0;"/><polygon fill="#FFFFFF" points="802.758,1170.081,804.4731,1177.0852,811.5982,1178.1959,809.883,1171.1917,802.758,1170.081" style="stroke: #A80036; stroke-width: 1.0;"/><text fill="#000000" font-family="sans-serif" font-size="13" lengthAdjust="spacingAndGlyphs" textLength="24" x="992.4963" y="1363.5549">1..1</text><path d="M1221.84,266.9 C1299.17,329.96 1405.82,407.81 1512,456 C1618.41,504.3 1695.4,424.42 1768,516 C1836.75,602.723 1777.97,654.783 1768,765 C1745.91,1009.315 1838.02,1130.21 1669,1308 C1601.45,1379.051 1312.13,1419.103 1173.56,1434.536 " fill="none" style="stroke: #A80036; stroke-width: 1.0;"/><polygon fill="#FFFFFF" points="1211.6,258.5,1213.7049,265.397,1220.881,266.1067,1218.7761,259.2097,1211.6,258.5" style="stroke: #A80036; stroke-width: 1.0;"/><text fill="#000000" font-family="sans-serif" font-size="13" lengthAdjust="spacingAndGlyphs" textLength="24" x="1181.5398" y="1430.1172">1..1</text><path d="M946.58,194.93 C680.026,248.58 162.597,369.32 57,516 C-7.6566,605.814 -2.1678,671.478 57,765 C172.107,946.94 430.491,1020.893 579.436,1049.244 " fill="none" style="stroke: #A80036; stroke-width: 1.0;"/><polygon fill="#FFFFFF" points="959.472,192.35,952.8032,189.6065,947.7058,194.7072,954.3746,197.4507,959.472,192.35" style="stroke: #A80036; stroke-width: 1.0;"/><text fill="#000000" font-family="sans-serif" font-size="13" lengthAdjust="spacingAndGlyphs" textLength="24" x="547.5202" y="1044.7177">1..1</text><path d="M1106,271.89 C1106,294.96 1106,318.38 1106,338.31 " fill="none" style="stroke: #A80036; stroke-width: 1.0;"/><polygon fill="#FFFFFF" points="1106,258.76,1102,264.76,1106,270.76,1110,264.76,1106,258.76" style="stroke: #A80036; stroke-width: 1.0;"/><text fill="#000000" font-family="sans-serif" font-size="13" lengthAdjust="spacingAndGlyphs" textLength="24" x="1080.4625" y="327.4799">1..1</text><path d="M1068.3,464.3 C1047.96,502.49 1023.23,548.92 1004.348,584.389 " fill="none" style="stroke: #A80036; stroke-width: 1.0;"/><polygon fill="none" points="1062.16,460.94,1077.74,446.58,1074.51,467.52,1062.16,460.94" style="stroke: #A80036; stroke-width: 1.0;"/><path d="M930.574,707.826 C896.312,758.979 847.373,832.041 802.649,898.813 " fill="none" style="stroke: #A80036; stroke-width: 1.0;"/><polygon fill="#A80036" points="937.872,696.931,931.2094,699.6897,931.1934,706.9008,937.856,704.1421,937.872,696.931" style="stroke: #A80036; stroke-width: 1.0;"/><text fill="#000000" font-family="sans-serif" font-size="13" lengthAdjust="spacingAndGlyphs" textLength="23" x="810.5382" y="884.6497">0..*</text><path d="M691,738.86 C691,764.969 691,794.396 691,824.621 " fill="none" style="stroke: #A80036; stroke-width: 1.0;"/><polygon fill="#FFFFFF" points="691,725.522,687,731.522,691,737.522,695,731.522,691,725.522" style="stroke: #A80036; stroke-width: 1.0;"/><text fill="#000000" font-family="sans-serif" font-size="13" lengthAdjust="spacingAndGlyphs" textLength="24" x="666.6438" y="814.2811">1..1</text><path d="M308.877,758.71 C311.263,760.833 313.639,762.931 316,765 C402.117,840.467 503.683,921.389 579.379,980.224 " fill="none" style="stroke: #A80036; stroke-width: 1.0;"/><polygon fill="#A80036" points="299.023,749.864,300.8159,756.8487,307.9529,757.8801,306.16,750.8954,299.023,749.864" style="stroke: #A80036; stroke-width: 1.0;"/><text fill="#000000" font-family="sans-serif" font-size="13" lengthAdjust="spacingAndGlyphs" textLength="41" x="530.3279" y="971.5695">0..*(2)</text></g></svg>